<svg width="16" height="16" viewBox="0 0 18 18" fill="none" xmlns="http://www.w3.org/2000/svg">
<path d="M9.37499 17.0625H3.05999C1.88249 17.0625 0.914993 16.1175 0.914993 14.9475V3.81752C0.914993 2.67002 1.34249 1.77752 2.12249 1.29002C2.90999 0.795018 3.92999 0.810018 4.98749 1.33502L8.31749 2.97002C9.22499 3.42002 9.93749 4.55252 9.93749 5.55752V16.5C9.93749 16.8075 9.68249 17.0625 9.37499 17.0625ZM3.41999 2.06252C3.15749 2.06252 2.91749 2.12252 2.71499 2.25002C2.27999 2.52002 2.03999 3.08252 2.03999 3.81752V14.9475C2.03999 15.495 2.49749 15.9375 3.05999 15.9375H8.81249V5.55752C8.81249 4.98002 8.34749 4.23752 7.81499 3.98252L4.48499 2.34752C4.10249 2.16002 3.74249 2.06252 3.41999 2.06252Z" fill="currentColor"/>
<path d="M14.1075 17.0629H9.375C9.0675 17.0629 8.8125 16.8079 8.8125 16.5004V7.81544C8.8125 7.64294 8.8875 7.48544 9.0225 7.38044C9.1575 7.27544 9.3225 7.23044 9.495 7.26794L9.8475 7.34294L14.7525 8.43794C16.245 8.76794 16.995 9.64544 17.04 11.1379C17.0475 11.1379 17.0475 11.2129 17.0475 11.2954V14.1304C17.04 16.0504 16.0275 17.0629 14.1075 17.0629ZM9.9375 15.9379H14.1075C15.4275 15.9379 15.915 15.4504 15.915 14.1304V11.2354C15.8775 10.2079 15.4875 9.75044 14.505 9.53294L9.9375 8.51294V15.9379Z" fill="currentColor"/>
<path d="M6.7275 7.3125H4.125C3.8175 7.3125 3.5625 7.0575 3.5625 6.75C3.5625 6.4425 3.8175 6.1875 4.125 6.1875H6.7275C7.035 6.1875 7.29 6.4425 7.29 6.75C7.29 7.0575 7.0425 7.3125 6.7275 7.3125Z" fill="currentColor"/>
<path d="M6.7275 10.3125H4.125C3.8175 10.3125 3.5625 10.0575 3.5625 9.75C3.5625 9.4425 3.8175 9.1875 4.125 9.1875H6.7275C7.035 9.1875 7.29 9.4425 7.29 9.75C7.29 10.0575 7.0425 10.3125 6.7275 10.3125Z" fill="currentColor"/>
<path d="M11.415 13.3129C10.1775 13.3129 9.16499 12.3004 9.16499 11.0629V7.89035C9.16499 7.71785 9.23999 7.56035 9.37499 7.44785C9.50999 7.33535 9.68249 7.29785 9.84749 7.33535L13.2225 8.09285C13.4775 8.15285 13.665 8.37785 13.665 8.64035V11.0554C13.665 12.3004 12.66 13.3129 11.415 13.3129ZM10.29 8.59535V11.0629C10.29 11.6854 10.7925 12.1879 11.415 12.1879C12.0375 12.1879 12.54 11.6854 12.54 11.0629V9.09785L10.29 8.59535Z" fill="currentColor"/>
<path d="M14.79 13.3125C13.5525 13.3125 12.54 12.3 12.54 11.0625V8.64748C12.54 8.47498 12.615 8.31748 12.75 8.21248C12.885 8.10748 13.0575 8.06248 13.2225 8.09998L14.745 8.43748C16.2375 8.76748 16.9875 9.64498 17.0325 11.1375C17.0325 11.1525 17.0325 11.1675 17.0325 11.1825C16.9725 12.375 15.99 13.3125 14.79 13.3125ZM13.665 9.34498V11.0625C13.665 11.685 14.1675 12.1875 14.79 12.1875C15.3825 12.1875 15.87 11.73 15.9075 11.145C15.87 10.2 15.48 9.74998 14.505 9.53248L13.665 9.34498Z" fill="currentColor"/>
</svg>
