<svg width="20" height="20" viewBox="0 0 20 20" fill="none" xmlns="http://www.w3.org/2000/svg">
<g clip-path="url(#clip0_9568_79564)">
<path d="M0.208984 1.66699C0.208984 1.32181 0.488806 1.04199 0.833984 1.04199H1.8189C2.76125 1.04199 3.5572 1.74142 3.67834 2.67595L3.73659 3.12533H16.6707C17.534 3.12533 18.2083 3.87113 18.1216 4.73007L17.7991 7.92648C17.7799 8.11653 17.6749 8.28739 17.5139 8.39029C17.353 8.49319 17.1538 8.51685 16.9733 8.45451C16.3559 8.24135 15.6925 8.12533 15.0007 8.12533C12.0518 8.12533 9.5952 10.2386 9.06503 13.0335C9.00907 13.3285 8.75124 13.542 8.45098 13.542H4.37565C3.91541 13.542 3.54232 13.9151 3.54232 14.3753C3.54232 14.8356 3.91541 15.2087 4.37565 15.2087H8.54401C8.88919 15.2087 9.16901 15.4885 9.16901 15.8337C9.16901 16.1788 8.88919 16.4587 8.54401 16.4587H7.79617C7.8743 16.6517 7.91732 16.8626 7.91732 17.0837C7.91732 18.0041 7.17113 18.7503 6.25065 18.7503C5.33018 18.7503 4.58398 18.0041 4.58398 17.0837C4.58398 16.8626 4.62701 16.6517 4.70513 16.4587H4.37565C3.22506 16.4587 2.29232 15.5259 2.29232 14.3753C2.29232 13.4113 2.94707 12.6002 3.83614 12.3625C3.69903 12.1157 3.6058 11.8399 3.56756 11.5449L2.43871 2.83665C2.39833 2.52513 2.13301 2.29199 1.8189 2.29199H0.833984C0.488806 2.29199 0.208984 2.01217 0.208984 1.66699Z" fill="currentColor"/>
<path fill-rule="evenodd" clip-rule="evenodd" d="M15.0007 9.37533C12.3543 9.37533 10.209 11.5206 10.209 14.167C10.209 16.8134 12.3543 18.9587 15.0007 18.9587C17.647 18.9587 19.7923 16.8134 19.7923 14.167C19.7923 11.5206 17.647 9.37533 15.0007 9.37533ZM17.0356 12.757C17.239 12.9604 17.239 13.2902 17.0356 13.4936L14.9523 15.5769C14.8543 15.6749 14.7214 15.7298 14.5829 15.7295C14.4444 15.7292 14.3117 15.6738 14.2142 15.5754L12.9642 14.3151C12.7616 14.1109 12.763 13.7811 12.9672 13.5786C13.1714 13.376 13.5012 13.3774 13.7038 13.5816L14.5855 14.4706L16.299 12.757C16.5024 12.5536 16.8322 12.5536 17.0356 12.757Z" fill="currentColor"/>
</g>
<defs>
<clipPath id="clip0_9568_79564">
<rect width="20" height="20" fill="currentColor"/>
</clipPath>
</defs>
</svg>
