<svg width="13" height="17" viewBox="0 0 13 17" fill="none" xmlns="http://www.w3.org/2000/svg">
<path d="M4.89001 0.599609H7.75501C8.51485 0.599609 9.24358 0.901457 9.78087 1.43875C10.3182 1.97604 10.62 2.70476 10.62 3.46461V9.22461H2.02501V3.46461C2.02501 2.70476 2.32686 1.97604 2.86415 1.43875C3.40144 0.901457 4.13016 0.599609 4.89001 0.599609Z" stroke="currentColor" stroke-width="1.2" stroke-miterlimit="10" stroke-linecap="square"/>
<path d="M2.38501 9.22461H10.26C10.7354 9.22461 11.1913 9.41346 11.5275 9.74962C11.8637 10.0858 12.0525 10.5417 12.0525 11.0171C12.0525 11.3016 11.9395 11.5743 11.7384 11.7755C11.5372 11.9766 11.2645 12.0896 10.98 12.0896H1.67251C1.38806 12.0896 1.11527 11.9766 0.914134 11.7755C0.713001 11.5743 0.600006 11.3016 0.600006 11.0171C0.600002 10.543 0.787824 10.0882 1.12236 9.75226C1.4569 9.41632 1.91091 9.22659 2.38501 9.22461Z" stroke="currentColor" stroke-width="1.2" stroke-miterlimit="10" stroke-linecap="square"/>
<path d="M6.32251 12.0518V14.9168" stroke="currentColor" stroke-width="1.2" stroke-miterlimit="10" stroke-linecap="square"/>
<path d="M3.45751 16.3498C3.85101 16.3498 4.17001 16.0308 4.17001 15.6373C4.17001 15.2438 3.85101 14.9248 3.45751 14.9248C3.06401 14.9248 2.74501 15.2438 2.74501 15.6373C2.74501 16.0308 3.06401 16.3498 3.45751 16.3498Z" stroke="currentColor" stroke-width="1.2" stroke-miterlimit="10" stroke-linecap="square"/>
<path d="M9.18751 16.3498C9.58101 16.3498 9.90001 16.0308 9.90001 15.6373C9.90001 15.2438 9.58101 14.9248 9.18751 14.9248C8.794 14.9248 8.47501 15.2438 8.47501 15.6373C8.47501 16.0308 8.794 16.3498 9.18751 16.3498Z" stroke="currentColor" stroke-width="1.2" stroke-miterlimit="10" stroke-linecap="square"/>
<path d="M3.4575 14.917H9.1875" stroke="currentColor" stroke-width="1.2" stroke-miterlimit="10"/>
</svg>
