<svg width="16" height="16" viewBox="0 0 18 18" fill="none" xmlns="http://www.w3.org/2000/svg">
<path d="M9.42676 18.002C9.40585 18.0159 9.38255 18.0255 9.36035 18.0371C9.42285 18.0044 9.48239 17.9649 9.5332 17.9141L9.42676 18.002ZM8.96191 0.00683594C9.11753 0.00683594 9.26784 0.0687296 9.37793 0.178711C9.48784 0.288752 9.54976 0.438219 9.5498 0.59375V0.932617L9.6543 0.94043C11.5576 1.09582 13.3439 1.92325 14.6943 3.27344C16.0449 4.62396 16.8719 6.41087 17.0273 8.31445L17.0361 8.41895H17.5264V8.39258C17.6396 8.41496 17.7443 8.47098 17.8271 8.55371C17.9372 8.66371 17.9999 8.81319 18 8.96875C17.9999 9.12439 17.9372 9.27471 17.8271 9.38477C17.7172 9.49438 17.5683 9.55549 17.4131 9.55566H17.1113L17.1025 9.66016C16.9472 11.5636 16.1208 13.3507 14.7705 14.7012C13.4199 16.0517 11.6322 16.8788 9.72852 17.0342L9.62402 17.043V17.4189C9.62398 17.5745 9.56302 17.7239 9.45312 17.834C9.34318 17.9439 9.19355 18.0067 9.03809 18.0068C8.88246 18.0068 8.73216 17.944 8.62207 17.834C8.51216 17.7239 8.45024 17.5745 8.4502 17.4189V17.1172L8.3457 17.1084C6.44231 16.953 4.65614 16.1266 3.30566 14.7764C1.95517 13.4259 1.12811 11.6389 0.972656 9.73535L0.963867 9.63086H0.586914C0.431558 9.63069 0.28278 9.56877 0.172852 9.45898C0.0628482 9.34898 0.000115207 9.1995 0 9.04395C6.408e-05 8.88832 0.0628022 8.73798 0.172852 8.62793C0.282751 8.51832 0.431696 8.4572 0.586914 8.45703H0.888672L0.897461 8.35254C1.05283 6.44909 1.87919 4.66204 3.22949 3.31152C4.58006 1.96095 6.36782 1.1339 8.27148 0.978516L8.37598 0.969727V0.59375C8.37602 0.438223 8.43697 0.288751 8.54688 0.178711C8.65682 0.0687695 8.80645 0.00702107 8.96191 0.00683594ZM8.34961 17.5566L8.35059 17.5557L8.34961 17.5566ZM7.10156 17.0234C7.28518 17.0673 7.47025 17.1065 7.65723 17.1377C7.47024 17.1065 7.28519 17.0673 7.10156 17.0234ZM9.58691 2.46387C9.58678 2.6194 9.52502 2.76892 9.41504 2.87891C9.30496 2.98885 9.15559 3.0498 9 3.0498C8.84441 3.0498 8.69504 2.98885 8.58496 2.87891C8.47498 2.76892 8.41322 2.6194 8.41309 2.46387V2.13965L8.28711 2.15332C6.71552 2.31879 5.24834 3.01935 4.13086 4.13672C3.01342 5.25415 2.31301 6.72138 2.14746 8.29297L2.13379 8.41895H2.45703C2.61257 8.41907 2.76208 8.4818 2.87207 8.5918C2.98202 8.70188 3.04395 8.85124 3.04395 9.00684C3.04382 9.16225 2.9819 9.31093 2.87207 9.4209C2.76208 9.53089 2.61257 9.59362 2.45703 9.59375H2.13379L2.14746 9.71973C2.31301 11.2913 3.01342 12.7585 4.13086 13.876C5.24834 14.9934 6.71551 15.6939 8.28711 15.8594L8.41309 15.873V15.5488C8.41323 15.3933 8.47498 15.2438 8.58496 15.1338C8.69504 15.0239 8.84441 14.9629 9 14.9629C9.15559 14.9629 9.30496 15.0239 9.41504 15.1338C9.52502 15.2438 9.58677 15.3933 9.58691 15.5488V15.873L9.71289 15.8594C11.2845 15.6939 12.7517 14.9934 13.8691 13.876C14.9866 12.7585 15.687 11.2913 15.8525 9.71973L15.8662 9.59375H15.543C15.3874 9.59362 15.2379 9.53089 15.1279 9.4209C15.0181 9.31093 14.9562 9.16225 14.9561 9.00684C14.9561 8.85124 15.018 8.70188 15.1279 8.5918C15.2379 8.4818 15.3874 8.41907 15.543 8.41895H15.8662L15.8525 8.29297C15.687 6.72138 14.9866 5.25415 13.8691 4.13672C12.7517 3.01935 11.2845 2.31879 9.71289 2.15332L9.58691 2.13965V2.46387ZM9.98242 15.709C9.97878 15.7095 9.97533 15.7114 9.97168 15.7119L9.70117 15.7461C9.79539 15.7362 9.88902 15.7228 9.98242 15.709ZM10.5352 15.6035C10.4742 15.6178 10.413 15.631 10.3516 15.6436C10.413 15.631 10.4742 15.6178 10.5352 15.6035ZM7.16309 15.5273V15.5264V15.5273ZM10.8164 15.5312C10.759 15.5473 10.7014 15.5626 10.6436 15.5771C10.7014 15.5626 10.759 15.5473 10.8164 15.5312ZM11.0938 15.4473C11.02 15.4713 10.9458 15.4941 10.8711 15.5156C10.9458 15.4941 11.02 15.4713 11.0938 15.4473ZM3.74121 15.3311C3.78286 15.3661 3.82588 15.3994 3.86816 15.4336C3.83161 15.4041 3.79389 15.3759 3.75781 15.3457L3.74121 15.3311ZM11.3291 15.3652C11.2757 15.3849 11.2219 15.4036 11.168 15.4219C11.2219 15.4036 11.2757 15.3849 11.3291 15.3652ZM11.6035 15.2588C11.5556 15.2788 11.5073 15.2975 11.459 15.3164C11.5073 15.2975 11.5556 15.2788 11.6035 15.2588ZM11.8535 15.1475C11.8056 15.1698 11.7575 15.1917 11.709 15.2129C11.7575 15.1917 11.8056 15.1698 11.8535 15.1475ZM12.1104 15.0205C12.0626 15.0452 12.0151 15.0702 11.9668 15.0938C12.0151 15.0702 12.0626 15.0452 12.1104 15.0205ZM14.5889 15.0322H14.5879H14.5889ZM12.3555 14.8877C12.3094 14.914 12.2635 14.9406 12.2168 14.9658C12.2635 14.9406 12.3094 14.914 12.3555 14.8877ZM12.5947 14.7451C12.5491 14.7737 12.5032 14.8016 12.457 14.8291C12.5032 14.8016 12.5492 14.7737 12.5947 14.7451ZM12.8389 14.585C12.7888 14.6194 12.7384 14.6534 12.6875 14.6865C12.7384 14.6534 12.7888 14.6194 12.8389 14.585ZM4.86328 14.3701L4.86426 14.3691L4.86328 14.3701ZM13.3154 14.2246C13.1876 14.3304 13.0566 14.4316 12.9219 14.5273C13.0566 14.4316 13.1876 14.3304 13.3154 14.2246ZM3.46484 12.9102C3.68649 13.2242 3.93615 13.5201 4.21094 13.7949L4.4209 13.9971C4.3496 13.9316 4.27961 13.8646 4.21094 13.7959C4.14235 13.7273 4.07512 13.6571 4.00977 13.5859C3.94431 13.5146 3.88052 13.442 3.81836 13.3682C3.69381 13.2202 3.57584 13.0675 3.46484 12.9102ZM14.8457 12.4268H14.8467C14.7499 12.592 14.6459 12.7533 14.5352 12.9102C14.4242 13.0675 14.3062 13.2202 14.1816 13.3682C14.1195 13.442 14.0557 13.5146 13.9902 13.5859C13.9249 13.6571 13.8576 13.7273 13.7891 13.7959L13.7051 13.876C13.733 13.849 13.7616 13.8224 13.7891 13.7949C14.201 13.3829 14.5552 12.9227 14.8457 12.4268ZM6.1748 12.9678L6.17383 12.9668L6.1748 12.9678ZM12.1709 12.8496C12.1219 12.8736 12.0709 12.8927 12.0195 12.9102C12.0285 12.9071 12.038 12.9056 12.0469 12.9023L12.1709 12.8496ZM9.01855 5.14844C9.60795 5.1485 10.174 5.3821 10.5908 5.79883C10.9553 6.16342 11.1799 6.64187 11.2305 7.15039L11.2412 7.37109C11.2385 7.85369 11.077 8.3225 10.7803 8.70312L10.6973 8.80762L10.8145 8.87305C11.3099 9.14752 11.7393 9.52769 12.0703 9.9873C12.4013 10.4469 12.6272 10.9744 12.7305 11.5312V11.5352C12.7642 11.6944 12.7611 11.8596 12.7217 12.0176C12.6822 12.1755 12.6066 12.3226 12.502 12.4473C12.3976 12.5728 12.2668 12.6762 12.1201 12.748C11.9748 12.8191 11.816 12.8583 11.6543 12.8643H6.30762C6.14597 12.8582 5.98711 12.8192 5.8418 12.748C5.69529 12.6762 5.56526 12.5737 5.46094 12.4482L5.45996 12.4473C5.35537 12.3226 5.2807 12.1754 5.24121 12.0176C5.20174 11.8596 5.19869 11.6945 5.23242 11.5352L5.2334 11.5342C5.34458 10.9704 5.57985 10.4378 5.92383 9.97754C6.26783 9.5173 6.71155 9.14032 7.2207 8.87402L7.34082 8.81055L7.25781 8.70312C6.961 8.32246 6.79862 7.85377 6.7959 7.37109C6.7959 6.78159 7.03045 6.21569 7.44727 5.79883C7.86402 5.38221 8.42927 5.14853 9.01855 5.14844ZM16.7588 11.7754C16.6282 12.1378 16.4713 12.4899 16.291 12.8301C16.4712 12.4899 16.6282 12.1378 16.7588 11.7754ZM12.498 12.6191C12.4659 12.6504 12.4326 12.6804 12.3975 12.708L12.2881 12.7842C12.3259 12.7604 12.3624 12.7347 12.3975 12.707L12.498 12.6191ZM9 9.60352C8.41703 9.60352 7.85011 9.79371 7.38379 10.1436C6.91742 10.4935 6.57606 10.9851 6.41309 11.5449L6.37109 11.6904H11.6289L11.5869 11.5449C11.4239 10.9851 11.0826 10.4935 10.6162 10.1436C10.1499 9.79371 9.58297 9.60352 9 9.60352ZM11.4111 11.3838C11.4353 11.4474 11.4584 11.5115 11.4775 11.5771H11.4766C11.4575 11.5116 11.4352 11.4472 11.4111 11.3838ZM6.5957 11.3633C6.56853 11.4332 6.54453 11.5047 6.52344 11.5771H6.52246C6.5436 11.5045 6.56845 11.4333 6.5957 11.3633ZM6.68848 11.1553C6.70948 11.1128 6.73063 11.0705 6.75391 11.0293C6.73064 11.0705 6.70947 11.1128 6.68848 11.1553ZM11.2451 11.0293C11.2685 11.0706 11.2904 11.1127 11.3115 11.1553C11.2905 11.1127 11.2685 11.0706 11.2451 11.0293ZM17.0566 10.7412L16.9727 11.0908C17.0047 10.9693 17.0341 10.8468 17.0605 10.7236C17.0593 10.7295 17.0579 10.7353 17.0566 10.7412ZM6.78906 10.9697C6.8101 10.9347 6.83183 10.9002 6.85449 10.8662C6.83183 10.9002 6.8101 10.9347 6.78906 10.9697ZM11.1445 10.8662C11.1672 10.9002 11.1889 10.9347 11.21 10.9697C11.1889 10.9347 11.1672 10.9002 11.1445 10.8662ZM6.89453 10.8066C6.92219 10.7676 6.95164 10.7299 6.98145 10.6924C6.95164 10.7299 6.92219 10.7676 6.89453 10.8066ZM11.0176 10.6924C11.0474 10.7299 11.0768 10.7676 11.1045 10.8066C11.0768 10.7676 11.0474 10.7299 11.0176 10.6924ZM7.01562 10.6504C7.04111 10.6197 7.06781 10.5901 7.09473 10.5605C7.06781 10.5901 7.04111 10.6197 7.01562 10.6504ZM10.9043 10.5605C10.9312 10.5901 10.9579 10.6197 10.9834 10.6504C10.9579 10.6197 10.9312 10.5901 10.9043 10.5605ZM7.29004 10.3662C7.24235 10.4084 7.19564 10.4516 7.15137 10.4971C7.15345 10.4949 7.15611 10.4933 7.1582 10.4912L7.29004 10.3662ZM10.3867 10.1221C10.442 10.1573 10.4961 10.1948 10.5488 10.2344C10.4962 10.1949 10.4419 10.1573 10.3867 10.1221ZM10.2139 10.0225C10.2536 10.0437 10.2924 10.0665 10.3311 10.0898C10.2924 10.0665 10.2536 10.0437 10.2139 10.0225ZM5.9707 9.73535C5.92312 9.79206 5.87744 9.85071 5.83301 9.91016L5.74805 10.0303C5.77604 9.98975 5.80347 9.9487 5.83301 9.90918C5.87733 9.84988 5.92326 9.79192 5.9707 9.73535ZM10.0391 9.9375C10.0784 9.95482 10.1168 9.97388 10.1553 9.99316C10.1168 9.97389 10.0784 9.9548 10.0391 9.9375ZM9.85352 9.86426C9.89289 9.87808 9.93203 9.89248 9.9707 9.9082C9.93203 9.89249 9.89289 9.87807 9.85352 9.86426ZM9.67188 9.80859C9.7092 9.81868 9.74638 9.82907 9.7832 9.84082C9.74638 9.82908 9.7092 9.81867 9.67188 9.80859ZM9.43262 9.75488C9.48543 9.76388 9.53779 9.77486 9.58984 9.78711C9.53779 9.77488 9.48543 9.76387 9.43262 9.75488ZM9.21973 9.72754C9.28424 9.73305 9.34842 9.74066 9.41211 9.75098C9.34843 9.74067 9.28423 9.73305 9.21973 9.72754ZM0.0927734 9.53906H0.0917969H0.0927734ZM2.8457 9.58984V9.58887V9.58984ZM15.1543 9.58887V9.58984V9.58887ZM17.9072 9.46484H17.9082H17.9072ZM6.6084 9.12793C6.49119 9.21698 6.37903 9.31252 6.27246 9.41406C6.32587 9.36317 6.38037 9.31343 6.43652 9.26562L6.6084 9.12793ZM11.2383 9.00488H11.2393H11.2383ZM17.6807 8.32129C17.7649 8.35619 17.8425 8.40789 17.9082 8.47363C17.974 8.53947 18.0257 8.61679 18.0605 8.70117C18.0255 8.61676 17.9731 8.53951 17.9072 8.47363C17.8743 8.44079 17.8389 8.41119 17.8008 8.38574L17.6807 8.32129ZM0.0917969 8.54785H0.0927734H0.0917969ZM9 6.32227C8.72188 6.32227 8.45447 6.43225 8.25781 6.62891C8.06131 6.82554 7.95117 7.09309 7.95117 7.37109C7.95127 7.57817 8.01296 7.78089 8.12793 7.95312C8.24305 8.12531 8.40731 8.25951 8.59863 8.33887C8.79019 8.41817 9.00173 8.43986 9.20508 8.39941C9.40828 8.35891 9.59565 8.2588 9.74219 8.1123C9.88841 7.96594 9.98777 7.77904 10.0283 7.57617C10.0688 7.37287 10.048 7.16125 9.96875 6.96973C9.88945 6.77828 9.75525 6.61423 9.58301 6.49902C9.41056 6.3838 9.2074 6.32227 9 6.32227ZM17.4121 8.26758L17.4131 8.30566H17.4121V8.26758ZM9.0459 8.30469L8.94238 8.30371C8.93453 8.30323 8.92678 8.30146 8.91895 8.30078C8.96113 8.30446 9.0035 8.30677 9.0459 8.30469ZM9.29883 8.25488C9.26075 8.26778 9.22234 8.28018 9.18262 8.28809V8.28711C9.22226 8.27921 9.26082 8.26773 9.29883 8.25488ZM8.8916 8.29785C8.85642 8.29375 8.82167 8.28737 8.78711 8.2793C8.82166 8.28739 8.85643 8.29374 8.8916 8.29785ZM8.6416 8.23438H8.64258C8.68236 8.25084 8.7233 8.26365 8.76465 8.27441C8.72301 8.2636 8.68159 8.25094 8.6416 8.23438ZM9.42285 8.20215C9.39514 8.21627 9.36691 8.22893 9.33789 8.24023C9.36692 8.22896 9.39514 8.21624 9.42285 8.20215ZM17.0186 7.42188C17.0678 7.67693 17.1051 7.93489 17.1299 8.19531L17.1035 7.94531C17.0813 7.76958 17.052 7.59501 17.0186 7.42188ZM9.74414 7.93359C9.71829 7.96779 9.69166 8.0017 9.66113 8.03223C9.62848 8.06486 9.59343 8.09482 9.55664 8.12207C9.52278 8.14714 9.48605 8.16821 9.44922 8.18848C9.52625 8.14616 9.59831 8.09407 9.66113 8.03125C9.69151 8.00085 9.71841 7.9676 9.74414 7.93359ZM9.8125 7.82812C9.79785 7.85415 9.78272 7.87975 9.76562 7.9043C9.78273 7.87976 9.79785 7.85415 9.8125 7.82812ZM8.21191 7.87109C8.19221 7.84005 8.17402 7.80833 8.1582 7.77539C8.17404 7.80832 8.19221 7.84006 8.21191 7.87109ZM15.6572 7.74805C15.6644 7.78567 15.6702 7.82355 15.6768 7.86133C15.6702 7.82355 15.6644 7.78567 15.6572 7.74805ZM9.91699 7.55371C9.908 7.59872 9.89522 7.64268 9.87988 7.68555C9.86616 7.72385 9.84863 7.76075 9.83008 7.79688C9.86951 7.72009 9.89997 7.63831 9.91699 7.55273V7.55371ZM8.14648 7.74805C8.13392 7.71959 8.12293 7.69065 8.11328 7.66113C8.12295 7.69065 8.1339 7.71959 8.14648 7.74805ZM15.5957 7.46484C15.6095 7.52356 15.6225 7.58245 15.6348 7.6416C15.6225 7.58245 15.6095 7.52356 15.5957 7.46484ZM8.0752 7.50781C8.08109 7.54752 8.09065 7.58647 8.10156 7.625C8.09069 7.58649 8.08109 7.54749 8.0752 7.50781ZM8.11719 7.06543C8.11954 7.05862 8.12152 7.05168 8.12402 7.04492C8.12151 7.05168 8.11954 7.05862 8.11719 7.06543ZM15.4492 6.93555C15.4621 6.97543 15.4742 7.01553 15.4863 7.05566C15.4742 7.01553 15.4621 6.97543 15.4492 6.93555ZM9.80859 6.90332C9.82893 6.93853 9.84759 6.97484 9.86328 7.0127C9.84759 6.97484 9.82895 6.93854 9.80859 6.90332ZM8.18262 6.91895C8.18812 6.90896 8.19432 6.89943 8.2002 6.88965C8.19432 6.89943 8.18813 6.90897 8.18262 6.91895ZM9.73047 6.78906C9.74983 6.8134 9.76731 6.83904 9.78418 6.86523C9.7673 6.83904 9.74984 6.8134 9.73047 6.78906ZM15.3594 6.67578C15.3747 6.71763 15.3897 6.7596 15.4043 6.80176C15.3897 6.7596 15.3747 6.71762 15.3594 6.67578ZM9.51953 6.59375L9.62793 6.67773C9.65821 6.70518 9.68556 6.73552 9.71191 6.7666C9.65613 6.70085 9.59198 6.6422 9.51953 6.59375ZM15.25 6.39746C15.2706 6.44676 15.2911 6.49611 15.3105 6.5459C15.2911 6.49611 15.2706 6.44676 15.25 6.39746ZM15.1348 6.1377C15.1527 6.17596 15.1703 6.21434 15.1875 6.25293C15.1703 6.21434 15.1527 6.17595 15.1348 6.1377ZM15.0127 5.88965C15.0387 5.9398 15.0641 5.99024 15.0889 6.04102C15.0641 5.99024 15.0387 5.93979 15.0127 5.88965ZM7.36719 5.71777H7.36621H7.36719ZM14.8574 5.60742C14.8914 5.66593 14.9248 5.72471 14.957 5.78418C14.9248 5.72472 14.8914 5.66592 14.8574 5.60742ZM4.4209 4.01562C4.34952 4.08113 4.27968 4.14903 4.21094 4.21777C3.93615 4.49259 3.68649 4.78848 3.46484 5.10254C3.57584 4.94524 3.69381 4.79245 3.81836 4.64453C3.88052 4.57071 3.94431 4.49807 4.00977 4.42676C4.07512 4.35555 4.14236 4.28538 4.21094 4.2168L4.4209 4.01562ZM14.7178 5.37793C14.7567 5.43928 14.7951 5.50095 14.832 5.56348C14.7951 5.50096 14.7567 5.43928 14.7178 5.37793ZM14.3613 4.86816C14.1854 4.64038 13.9944 4.42312 13.7891 4.21777L13.5791 4.01562C13.6504 4.08105 13.7204 4.14814 13.7891 4.2168L13.9902 4.42773C14.1205 4.56963 14.2442 4.71655 14.3613 4.86816ZM8.78809 5.04492C8.55855 5.06771 8.3349 5.12447 8.12402 5.21191C8.3349 5.12452 8.55853 5.06768 8.78809 5.04492ZM9.23828 5.04395C9.24741 5.04481 9.25651 5.04591 9.26562 5.04688C9.26014 5.04629 9.25452 5.04547 9.24902 5.04492L9.23828 5.04395ZM4.86328 3.64258L4.86426 3.64355L4.86328 3.64258ZM13.1357 3.64355L13.1367 3.64258L13.1357 3.64355ZM13.3721 2.06934C13.7758 2.32515 14.1577 2.6176 14.5137 2.94336C14.2468 2.69917 13.9653 2.4738 13.6709 2.26855L13.3721 2.06934ZM7.16309 2.48633V2.48535V2.48633ZM10.8369 2.48535V2.48633V2.48535ZM9.5459 0.205078C9.59662 0.28117 9.63242 0.366391 9.65039 0.456055C9.64137 0.411446 9.62776 0.368017 9.61035 0.326172L9.5459 0.205078ZM8.69434 -0.0537109C8.61015 -0.0186923 8.53253 0.0329035 8.4668 0.0986328C8.49957 0.0658615 8.53526 0.0361026 8.57324 0.0107422L8.69434 -0.0537109ZM10.2578 15.6621C10.1696 15.6789 10.0812 15.6947 9.99219 15.708C10.0812 15.6947 10.1696 15.6789 10.2578 15.6621ZM11.334 11.1992C11.36 11.2545 11.3832 11.311 11.4053 11.3682C11.3832 11.311 11.36 11.2545 11.334 11.1992ZM6.5957 11.3633C6.61727 11.3078 6.63978 11.2529 6.66504 11.1992C6.6398 11.2529 6.61725 11.3078 6.5957 11.3633ZM15.5254 7.1875C15.5451 7.25802 15.5626 7.32916 15.5801 7.40039C15.5626 7.32916 15.5451 7.25802 15.5254 7.1875ZM14.5508 5.12793C14.5923 5.18732 14.6333 5.24699 14.6729 5.30762C14.6333 5.247 14.5923 5.18732 14.5508 5.12793Z" fill="currentColor"/>
</svg>
