<svg width="17" height="17" viewBox="0 0 17 17" fill="none" xmlns="http://www.w3.org/2000/svg">
<path fill-rule="evenodd" clip-rule="evenodd" d="M11.8251 0C11.1405 0.000198808 10.484 0.272241 9.99996 0.756323C9.51588 1.24041 9.24384 1.8969 9.24364 2.5815C9.24364 3.027 9.44539 3.56925 9.75739 4.09875C10.3836 5.1645 11.4276 6.21 11.4276 6.21C11.4798 6.26225 11.5418 6.3037 11.61 6.33198C11.6782 6.36026 11.7513 6.37482 11.8251 6.37482C11.899 6.37482 11.9721 6.36026 12.0403 6.33198C12.1085 6.3037 12.1705 6.26225 12.2226 6.21C12.2226 6.21 13.2666 5.1645 13.8929 4.09875C14.2049 3.56925 14.4066 3.027 14.4066 2.5815C14.4066 1.1565 13.2501 0 11.8251 0ZM11.8251 1.125C12.6291 1.125 13.2816 1.7775 13.2816 2.5815C13.2816 2.9775 12.9869 3.46425 12.6704 3.92325C12.4099 4.29462 12.1277 4.65024 11.8251 4.98825C11.5814 4.71375 11.2626 4.33275 10.9799 3.92325C10.6634 3.46425 10.3686 2.9775 10.3686 2.5815C10.3686 1.7775 11.0211 1.125 11.8251 1.125Z" fill="currentColor"/>
<path d="M8.07515 0C8.22432 1.28507e-05 8.36713 0.0595613 8.47261 0.165039C8.57808 0.270526 8.63765 0.413327 8.63765 0.5625C8.63765 0.711673 8.57808 0.854474 8.47261 0.959961C8.36713 1.06544 8.22432 1.12499 8.07515 1.125C6.68128 1.125 5.38362 1.53829 4.29585 2.24707L5.27534 4.20508C5.33465 4.3241 5.41931 4.42871 5.52242 4.5127C5.6256 4.59672 5.74531 4.65841 5.87398 4.69238L7.19234 5.04102C7.55114 5.13584 7.87774 5.3259 8.13765 5.59082C8.39742 5.85565 8.58094 6.18551 8.6689 6.5459L9.23335 8.86133C9.28902 9.08968 9.42845 9.28852 9.62398 9.41895L9.97359 9.65137C10.084 9.72549 10.2087 9.77586 10.3398 9.79785C10.471 9.81982 10.6057 9.81345 10.7343 9.7793C10.8629 9.74514 10.9829 9.68378 11.0859 9.59961C11.1888 9.51545 11.2729 9.41015 11.332 9.29102L11.7636 8.42773C11.8967 8.16179 12.0854 7.92734 12.3173 7.74121C12.5492 7.55513 12.819 7.42194 13.1074 7.34961L14.9121 6.89746C14.8183 6.34514 14.6608 5.80416 14.4355 5.28809C14.3756 5.15143 14.3724 4.99639 14.4267 4.85742C14.4811 4.71866 14.5881 4.60669 14.7246 4.54688C14.8612 4.48705 15.0163 4.48381 15.1552 4.53809C15.2942 4.59238 15.4059 4.70026 15.4658 4.83691C15.8977 5.82536 16.1376 6.91583 16.1376 8.0625C16.1376 12.5122 12.5249 16.125 8.07515 16.125C3.66552 16.125 0.0799115 12.5771 0.0155792 8.18262C-0.00106524 8.11151 -0.00473479 8.03797 0.00679016 7.96582C0.00869283 7.95393 0.012926 7.94237 0.0155792 7.93066C0.0566423 5.37545 1.28771 3.10832 3.17964 1.65918C3.21468 1.62466 3.254 1.59557 3.29683 1.57129C4.63456 0.584505 6.28691 0 8.07515 0ZM3.38863 2.94824C2.07538 4.15244 1.22731 5.85577 1.14449 7.75586L3.32613 9.11816C3.59449 9.28608 3.90409 9.37491 4.21968 9.375H4.78999C5.19574 9.37487 5.59718 9.46223 5.96577 9.63184C6.33432 9.80144 6.66191 10.0492 6.92574 10.3574L7.7148 11.2773C8.01742 11.6301 8.22772 12.0528 8.3271 12.5068C8.42642 12.9609 8.41175 13.433 8.28413 13.8799L7.96382 14.9971C8.00086 14.9977 8.03798 15 8.07515 15C11.9039 15 15.0126 11.8912 15.0126 8.0625C15.0127 8.05273 15.0117 8.04297 15.0117 8.0332L13.3808 8.44141C13.2497 8.47413 13.1269 8.53465 13.0214 8.61914C12.916 8.70359 12.83 8.80994 12.7695 8.93066L12.3378 9.79395C12.2074 10.0558 12.0226 10.2878 11.7959 10.4727C11.5693 10.6573 11.3059 10.7912 11.0234 10.8662C10.7406 10.9413 10.4448 10.9553 10.1562 10.9072C9.86768 10.8591 9.59268 10.7505 9.34956 10.5879L8.99995 10.3555C8.56974 10.0685 8.26305 9.63033 8.14058 9.12793L7.57613 6.8125C7.49513 6.47875 7.23748 6.21568 6.90523 6.12793L5.58687 5.7793C5.30372 5.70456 5.03965 5.5705 4.81245 5.38574C4.58523 5.20094 4.39939 4.97003 4.26851 4.70801L3.38863 2.94824ZM1.2187 9.12793C1.66879 12.0428 3.93706 14.3584 6.82613 14.8848L7.2021 13.5713C7.2786 13.303 7.28718 13.0196 7.22749 12.7471C7.16778 12.4748 7.0418 12.2214 6.86031 12.0098L6.07222 11.0898C5.75122 10.7156 5.28274 10.5 4.78999 10.5H4.21968C3.69334 10.4999 3.17631 10.3512 2.72945 10.0723L1.2187 9.12793Z" fill="currentColor"/>
</svg>
