<svg width="16" height="16" viewBox="0 0 16 16" fill="none" xmlns="http://www.w3.org/2000/svg">
<g clip-path="url(#clip0_9816_51690)">
<path d="M9.19998 2.17505C8.8548 2.17505 8.57498 2.45487 8.57498 2.80005C8.57498 3.14523 8.8548 3.42505 9.19998 3.42505C9.54516 3.42505 9.82503 3.14523 9.82503 2.80005C9.82503 2.45487 9.54516 2.17505 9.19998 2.17505Z" fill="#606060"/>
<path fill-rule="evenodd" clip-rule="evenodd" d="M9.19999 0.625C7.99852 0.625 7.02496 1.59992 7.02496 2.80091C7.02496 4.12504 8.07504 5.12505 8.97496 5.8C9.1083 5.9 9.29163 5.9 9.42496 5.8C10.325 5.125 11.375 4.125 11.375 2.8C11.375 1.59877 10.4012 0.625 9.19999 0.625ZM7.77496 2.80091C7.77496 2.01365 8.41321 1.375 9.19999 1.375C9.98701 1.375 10.625 2.01297 10.625 2.8C10.625 3.64669 9.99658 4.38864 9.19996 5.02587C8.40329 4.38861 7.77496 3.64673 7.77496 2.80091Z" fill="#606060"/>
<path fill-rule="evenodd" clip-rule="evenodd" d="M0.791987 6.18789C0.896312 6.11834 1.02849 6.10553 1.14423 6.15376L3.59038 7.17299C4.10321 7.38666 4.1032 8.11316 3.59038 8.32683L1.375 9.24991V10.9999C1.375 11.207 1.20711 11.3749 1 11.3749C0.792893 11.3749 0.625 11.207 0.625 10.9999V6.49991C0.625 6.37453 0.687663 6.25744 0.791987 6.18789ZM1.375 7.06241V8.43741L3.025 7.74991L1.375 7.06241Z" fill="#606060"/>
<path d="M7.25 5.12491C7.45711 5.12491 7.625 5.2928 7.625 5.49991C7.625 5.70702 7.45711 5.87491 7.25 5.87491H6.37549C5.8232 5.87491 5.37549 6.32262 5.37549 6.87491C5.37549 7.42719 5.8232 7.87491 6.37549 7.87491H9.62549C10.592 7.87491 11.3755 8.65841 11.3755 9.62491C11.3755 10.5914 10.592 11.3749 9.62549 11.3749H3.00049C2.79338 11.3749 2.62549 11.207 2.62549 10.9999C2.62549 10.7928 2.79338 10.6249 3.00049 10.6249H9.62549C10.1778 10.6249 10.6255 10.1772 10.6255 9.62491C10.6255 9.07262 10.1778 8.62491 9.62549 8.62491H6.37549C5.40899 8.62491 4.62549 7.84141 4.62549 6.87491C4.62549 5.90841 5.40899 5.12491 6.37549 5.12491H7.25Z" fill="#606060"/>
</g>
<defs>
<clipPath id="clip0_9816_51690">
<rect width="12" height="12" fill="red"/>
</clipPath>
</defs>
</svg>
