<svg width="16" height="16" viewBox="0 0 18 18" fill="none" xmlns="http://www.w3.org/2000/svg">
<g clip-path="url(#clip0_5081_345)">
<path fill-rule="evenodd" clip-rule="evenodd" d="M12.75 0.9375C12.0654 0.937699 11.4089 1.20974 10.9248 1.69382C10.4407 2.17791 10.1687 2.8344 10.1685 3.519C10.1685 3.9645 10.3702 4.50675 10.6822 5.03625C11.3085 6.102 12.3525 7.1475 12.3525 7.1475C12.4046 7.19975 12.4666 7.2412 12.5348 7.26948C12.603 7.29776 12.6761 7.31232 12.75 7.31232C12.8238 7.31232 12.8969 7.29776 12.9651 7.26948C13.0333 7.2412 13.0953 7.19975 13.1475 7.1475C13.1475 7.1475 14.1915 6.102 14.8177 5.03625C15.1297 4.50675 15.3315 3.9645 15.3315 3.519C15.3315 2.094 14.175 0.9375 12.75 0.9375ZM12.75 2.0625C13.554 2.0625 14.2065 2.715 14.2065 3.519C14.2065 3.915 13.9117 4.40175 13.5952 4.86075C13.3347 5.23212 13.0525 5.58774 12.75 5.92575C12.5062 5.65125 12.1675 5.27025 11.9047 4.86075C11.5882 4.40175 11.2935 3.915 11.2935 3.519C11.2935 2.715 11.946 2.0625 12.75 2.0625Z" fill="currentColor"/>
<path d="M9 0.9375C9.14917 0.937513 9.29198 0.997061 9.39746 1.10254C9.50293 1.20803 9.5625 1.35083 9.5625 1.5C9.5625 1.64917 9.50293 1.79197 9.39746 1.89746C9.29198 2.00294 9.14917 2.06249 9 2.0625C7.60613 2.0625 6.30847 2.47579 5.2207 3.16457L6.2002 5.14258C6.2595 5.2616 6.34416 5.36621 6.44727 5.4502C6.55045 5.53422 6.67016 5.59591 6.79883 5.62988L8.11719 5.97852C8.47599 6.07334 8.80259 6.2634 9.0625 6.52832C9.32227 6.79315 9.50579 7.12301 9.59375 7.4834L10.1582 9.79883C10.2139 10.0272 10.3533 10.226 10.5488 10.3564L10.8984 10.5889C11.0088 10.663 11.1335 10.7134 11.2646 10.7354C11.3959 10.7573 11.5306 10.7509 11.6592 10.7168C11.7877 10.6826 11.9077 10.6213 12.0107 10.5371C12.1137 10.453 12.1978 10.3476 12.2568 10.2285L12.6885 9.36523C12.8216 9.09929 13.0103 8.86484 13.2422 8.67871C13.4741 8.49263 13.7438 8.35944 14.0322 8.28711L15.8369 7.83496C15.7431 7.28264 15.5857 6.74166 15.3604 6.22559C15.3005 6.08893 15.2973 5.93389 15.3516 5.79492C15.4059 5.65616 15.5129 5.54419 15.6494 5.48438C15.786 5.42455 15.9412 5.42131 16.0801 5.47559C16.219 5.52988 16.3308 5.63776 16.3906 5.77441C16.8226 6.76286 17.0625 7.85333 17.0625 9C17.0625 13.4497 13.4497 17.0625 9 17.0625C4.59037 17.0625 1.00476 13.5146 0.94043 9.12012C0.923785 9.04901 0.920116 8.97547 0.931641 8.90332C0.933543 8.89143 0.937776 8.87987 0.94043 8.86816C0.981493 6.31295 2.21256 4.04582 4.10449 2.59668C4.13953 2.56216 4.17886 2.53307 4.22168 2.50879C5.55941 1.522 7.21176 0.9375 9 0.9375ZM4.31348 3.88574C3.00023 5.08994 2.15216 6.79327 2.06934 8.69336L4.25098 10.0557C4.51934 10.2236 4.82894 10.3124 5.14453 10.3125H5.71484C6.12059 10.3124 6.52203 10.3997 6.89062 10.5693C7.25917 10.7389 7.58676 10.9867 7.85059 11.2949L8.63965 12.2148C8.94227 12.5676 9.15257 12.9903 9.25195 13.4443C9.35127 13.8984 9.3366 14.3705 9.20898 14.8174L8.88867 15.9346C8.92571 15.9352 8.96283 15.9375 9 15.9375C12.8287 15.9375 15.9375 12.8287 15.9375 9C15.9375 8.99023 15.9366 8.98047 15.9365 8.9707L14.3057 9.37891C14.1745 9.41163 14.0516 9.47215 13.9463 9.55664C13.8409 9.64109 13.7549 9.74744 13.6943 9.86816L13.2627 10.7314C13.1323 10.9933 12.9474 11.2253 12.7207 11.4102C12.4941 11.5948 12.2307 11.7287 11.9482 11.8037C11.6655 11.8788 11.3697 11.8928 11.0811 11.8447C10.7925 11.7966 10.5175 11.688 10.2744 11.5254L9.9248 11.293C9.49459 11.006 9.1679 10.5678 9.06543 10.0654L8.50098 7.75C8.41998 7.41625 8.16233 7.15316 7.83008 7.06543L6.51172 6.7168C6.22857 6.64206 5.9645 6.508 5.7373 6.32324C5.51008 6.13844 5.32424 5.90753 5.19336 5.64551L4.31348 3.88574ZM2.14355 10.0654C2.59364 12.9803 4.86191 15.2959 7.75098 15.8223L8.12695 14.5088C8.20345 14.2405 8.21203 13.9571 8.15234 13.6846C8.09263 13.4123 7.96666 13.1589 7.78516 12.9473L6.99707 12.0273C6.67607 11.6531 6.20759 11.4375 5.71484 11.4375H5.14453C4.61619 11.4374 4.10116 11.2887 3.6543 11.0098L2.14355 10.0654Z" fill="currentColor"/>
</g>
<defs>
<clipPath id="clip0_5081_345">
<rect width="18" height="18" fill="currentColor"/>
</clipPath>
</defs>
</svg>

