<svg width="12" height="12" viewBox="0 0 12 12" fill="none" xmlns="http://www.w3.org/2000/svg">
<g clip-path="url(#clip0_8383_16564)">
<path d="M6.45352 0.681891C6.15574 0.607664 5.84429 0.607664 5.54651 0.681891C5.20823 0.766215 4.90605 0.977947 4.46816 1.28476L2.10159 2.94138C1.64827 3.25856 1.35633 3.46282 1.14147 3.73289C0.951601 3.97154 0.809473 4.24452 0.722848 4.53692C0.624815 4.86782 0.62489 5.22412 0.625008 5.77739L0.625016 8.61625C0.625012 9.02267 0.625009 9.35048 0.646698 9.61594C0.669029 9.88925 0.716209 10.1293 0.829379 10.3514C1.00914 10.7042 1.29598 10.9911 1.64878 11.1708C1.87089 11.284 2.11096 11.3312 2.38428 11.3535C2.64973 11.3752 2.97754 11.3752 3.38395 11.3752H3.66198C3.75662 11.3752 3.8488 11.3752 3.92685 11.3688C4.01257 11.3618 4.11373 11.3453 4.21551 11.2935C4.35663 11.2216 4.47137 11.1068 4.54327 10.9657C4.59513 10.8639 4.61166 10.7628 4.61866 10.677C4.62504 10.599 4.62503 10.5068 4.62502 10.4122L4.62502 8.50007C4.62502 7.74068 5.24062 7.12507 6.00002 7.12507C6.75941 7.12507 7.37502 7.74068 7.37502 8.50007L7.37502 10.4122C7.375 10.5068 7.37499 10.599 7.38137 10.677C7.38837 10.7628 7.4049 10.8639 7.45676 10.9657C7.52867 11.1068 7.6434 11.2216 7.78452 11.2935C7.88631 11.3453 7.98746 11.3618 8.07318 11.3688C8.15123 11.3752 8.2434 11.3752 8.33804 11.3752H8.61608C9.02249 11.3752 9.3503 11.3752 9.61575 11.3535C9.88907 11.3312 10.1291 11.284 10.3512 11.1708C10.7041 10.9911 10.9909 10.7042 11.1707 10.3514C11.2838 10.1293 11.331 9.88925 11.3533 9.61594C11.375 9.35048 11.375 9.02268 11.375 8.61627L11.375 5.77738C11.3751 5.22412 11.3752 4.86782 11.2772 4.53692C11.1906 4.24452 11.0484 3.97154 10.8586 3.73289C10.6437 3.46282 10.3518 3.25856 9.89844 2.94138L7.53187 1.28476C7.09399 0.977948 6.7918 0.766214 6.45352 0.681891Z" fill="currentColor"/>
</g>
<defs>
<clipPath id="clip0_8383_16564">
<rect width="12" height="12" fill="white"/>
</clipPath>
</defs>
</svg>
