<svg width="16" height="16" viewBox="0 0 17 17" fill="none" xmlns="http://www.w3.org/2000/svg">
<path fill-rule="evenodd" clip-rule="evenodd" d="M7.45002 1.53167C7.11104 1.75766 6.70929 2.10835 6.11504 2.62811L1.33589 6.8105C1.96027 6.84397 2.53026 7.33277 2.53026 8.02411V10.7393C2.53026 11.9261 2.53193 12.748 2.62232 13.3674C2.70853 13.9616 2.86588 14.2772 3.11447 14.5065C3.36975 14.7425 3.73216 14.8965 4.4009 14.9802C5.08388 15.0639 5.98614 15.0656 7.26672 15.0656H9.05451C10.3351 15.0656 11.2373 15.0648 11.9203 14.9802C12.5899 14.8965 12.9515 14.7425 13.2068 14.5065C13.4553 14.2772 13.6127 13.9625 13.6989 13.3665C13.7893 12.7472 13.791 11.9261 13.791 10.7384V8.02411C13.791 7.33277 14.3618 6.84397 14.9853 6.8105L10.2062 2.62895C9.61193 2.10835 9.21018 1.75849 8.87121 1.53167C8.54897 1.31489 8.34726 1.25547 8.16061 1.25547C7.9748 1.25547 7.77309 1.31489 7.45002 1.53167ZM6.75114 0.488796C7.18888 0.195853 7.63415 0 8.16061 0C8.68707 0 9.13235 0.195016 9.57009 0.488796C9.98439 0.765836 10.4464 1.1701 11.003 1.65722L15.9069 5.94841C16.3337 6.3217 16.4149 6.8716 16.2232 7.31436C16.1233 7.54175 15.9581 7.73439 15.7486 7.86788C15.5391 8.00137 15.2948 8.06973 15.0464 8.06429V10.7878C15.0464 11.9144 15.0464 12.8275 14.9418 13.5473C14.8322 14.3006 14.5961 14.9325 14.0588 15.4289C13.529 15.9185 12.8661 16.1277 12.0752 16.2257C11.3051 16.3211 10.3259 16.3211 9.09803 16.3211H7.2232C5.99619 16.3211 5.01525 16.3211 4.2469 16.2257C3.45512 16.1277 2.79307 15.9185 2.26326 15.4289C1.72508 14.9325 1.48989 14.3015 1.38025 13.5473C1.27479 12.8275 1.27479 11.9144 1.27479 10.7878V8.06429H1.26642C1.01949 8.06806 0.776939 7.99892 0.56911 7.86553C0.361281 7.73214 0.197407 7.54042 0.0979959 7.31436C-0.00291366 7.08288 -0.0266341 6.82507 0.030344 6.57907C0.0873222 6.33307 0.221972 6.11195 0.414374 5.94841L5.31907 1.65722C5.87482 1.1701 6.33684 0.765836 6.75114 0.488796Z" fill="currentColor"/>
<path fill-rule="evenodd" clip-rule="evenodd" d="M7.32364 11.5089C7.32364 11.2869 7.41182 11.074 7.56878 10.917C7.72575 10.7601 7.93864 10.6719 8.16062 10.6719H8.16899C8.39097 10.6719 8.60386 10.7601 8.76082 10.917C8.91778 11.074 9.00597 11.2869 9.00597 11.5089C9.00597 11.7308 8.91778 11.9437 8.76082 12.1007C8.60386 12.2577 8.39097 12.3458 8.16899 12.3458H8.16062C7.93864 12.3458 7.72575 12.2577 7.56878 12.1007C7.41182 11.9437 7.32364 11.7308 7.32364 11.5089Z" fill="currentColor"/>
</svg>
