
<svg  viewBox="0 0 16 16" fill="none" xmlns="http://www.w3.org/2000/svg">
<g opacity="0.5">
<path fillRule="evenodd" clipRule="evenodd" d="M13.84 0.976562C11.9031 0.976562 11.9655 0.988978 12.0237 1.0131C12.082 1.03722 12.1349 1.07258 12.1795 1.11715C12.224 1.16172 12.2594 1.21464 12.2835 1.27287C12.3076 1.33111 12.32 1.39353 12.32 1.45656V3.53656H14.4C14.5274 3.53656 14.6494 3.58713 14.7395 3.67715C14.8295 3.76717 14.88 3.88926 14.88 4.01656C14.88 4.14387 14.8295 4.26596 14.7395 4.35597C14.6494 4.44599 14.5274 4.49656 14.4 4.49656H12.32V6.57656C12.32 6.70387 12.2695 6.82596 12.1795 6.91597C12.0894 7.00599 11.9674 7.05656 11.84 7.05656C11.7127 7.05656 11.5907 7.00599 11.5006 6.91597C11.4106 6.82596 11.36 6.70387 11.36 6.57656V4.49656H9.28005C9.15274 4.49656 9.03066 4.44599 8.94064 4.35597C8.85062 4.26596 8.80005 4.14387 8.80005 4.01656C8.80005 3.88926 8.85062 3.76717 8.94064 3.67715C9.03066 3.58713 9.15274 3.53656 9.28005 3.53656H11.36V1.45656C11.36 1.32926 11.4106 1.20717 11.5006 1.11715C11.5907 1.02713 11.7127 0.976563 11.84 0.976562Z" fill="#606060"/>
<path fillRule="evenodd" clipRule="evenodd" d="M7.64364 1.61719H7.68012C7.80742 1.61719 7.92951 1.66776 8.01953 1.75778C8.10954 1.84779 8.16012 1.96988 8.16012 2.09719C8.16012 2.22449 8.10954 2.34658 8.01953 2.4366C7.92951 2.52662 7.80742 2.57719 7.68012 2.57719C6.23372 2.57719 5.19692 2.57847 4.40844 2.68407C3.63404 2.78839 3.17132 2.98615 2.8302 3.32727C2.48908 3.66839 2.29132 4.13111 2.187 4.90551C2.0814 5.69399 2.08012 6.73079 2.08012 8.17719C2.08012 9.62359 2.0814 10.6604 2.187 11.4489C2.29132 12.2233 2.48908 12.6866 2.8302 13.0277C3.17132 13.3689 3.63404 13.566 4.40844 13.6703C5.19692 13.7765 6.23372 13.7772 7.68012 13.7772C9.12652 13.7772 10.1633 13.7765 10.9518 13.6703C11.7262 13.566 12.1889 13.3689 12.53 13.0277C12.8712 12.6866 13.0689 12.2239 13.1732 11.4489C13.2788 10.6604 13.2801 9.62423 13.2801 8.17719V7.85719C13.2801 7.72988 13.3307 7.60779 13.4207 7.51778C13.5107 7.42776 13.6328 7.37719 13.7601 7.37719C13.8874 7.37719 14.0095 7.42776 14.0995 7.51778C14.1895 7.60779 14.2401 7.72988 14.2401 7.85719V8.21367C14.2401 9.61591 14.2401 10.7173 14.1249 11.5769C14.0059 12.4581 13.7582 13.157 13.2097 13.7061C12.6612 14.2553 11.9611 14.5029 11.0798 14.6213C10.2203 14.7372 9.11884 14.7372 7.7166 14.7372H7.64364C6.24204 14.7372 5.13996 14.7372 4.28044 14.622C3.39916 14.5029 2.70028 14.2553 2.15116 13.7068C1.60204 13.1583 1.35436 12.4581 1.23596 11.5769C1.12012 10.7173 1.12012 9.61591 1.12012 8.21367V8.14071C1.12012 6.73911 1.12012 5.63767 1.23532 4.77751C1.35436 3.89623 1.60204 3.19735 2.15052 2.64823C2.699 2.09911 3.39916 1.85143 4.28044 1.73303C5.13996 1.61783 6.2414 1.61783 7.64364 1.61783V1.61719Z" fill="#606060"/>
<path fillRule="evenodd" clipRule="evenodd" d="M7.17965 11.0132C5.94957 10.0807 4.40013 9.58406 2.80845 9.61798H2.79693C2.41933 9.6167 2.04173 9.64358 1.66925 9.69798L1.53101 8.74758C1.94917 8.68699 2.3712 8.65704 2.79373 8.65798C4.59405 8.62086 6.35341 9.18278 7.75949 10.2471C9.06509 11.2365 9.98861 12.6029 10.3848 14.1357L9.45549 14.3764C9.11565 13.0612 8.32013 11.8772 7.17965 11.0132Z" fill="#606060"/>
<path fillRule="evenodd" clipRule="evenodd" d="M11.4478 9.93753C10.1384 9.93305 8.86348 10.4156 7.70508 11.3193L8.29516 12.0764C9.31404 11.2822 10.3848 10.8937 11.4452 10.8975H11.4478C12.1486 10.8969 12.8526 11.0697 13.5432 11.4191L13.9771 10.5628C13.163 10.1507 12.3118 9.93689 11.4478 9.93753Z" fill="#606060"/>
</g>
</svg>
