<svg fill="none" height="16" viewBox="0 0 16 16" width="16" xmlns="http://www.w3.org/2000/svg">
    <path d="M15.3467 2.23108L12.09 5.64219C11.8985 5.84443 11.592 5.85791 11.3876 5.65567L9.66347 3.99731C9.45913 3.79507 9.44636 3.458 9.62516 3.24228C9.81673 3.02656 10.136 3.01308 10.3404 3.21532L11.7069 4.53662L14.6188 1.46257C14.8231 1.24685 15.1424 1.24685 15.3467 1.46257C15.5511 1.6783 15.5511 2.01536 15.3467 2.23108Z" fill="#339D56" />
    <path d="M7.67969 1.61719C7.80699 1.61719 7.92951 1.6678 8.01953 1.75781C8.10941 1.84773 8.16005 1.96955 8.16016 2.09668C8.16016 2.22398 8.10955 2.34651 8.01953 2.43652C7.92952 2.52653 7.80698 2.57715 7.67969 2.57715C6.23351 2.57715 5.19661 2.578 4.4082 2.68359C3.63391 2.78792 3.17117 2.98606 2.83008 3.32715C2.489 3.66826 2.29084 4.13095 2.18652 4.90527C2.08093 5.6937 2.08008 6.73052 2.08008 8.17676C2.08008 8.35288 2.08083 8.52323 2.08105 8.6875C2.31807 8.66848 2.55601 8.65865 2.79395 8.65918C4.59419 8.62211 6.35374 9.18377 7.75977 10.248C7.99505 10.4264 8.21714 10.6178 8.42676 10.8193C9.38425 10.2386 10.4056 9.93393 11.4482 9.9375C12.061 9.9371 12.6666 10.0463 13.2578 10.2559C13.2769 9.6733 13.2803 8.98978 13.2803 8.17676V7.85742C13.2803 7.73012 13.3309 7.6076 13.4209 7.51758C13.5108 7.42773 13.6327 7.37705 13.7598 7.37695C13.8871 7.37695 14.0096 7.42756 14.0996 7.51758C14.1896 7.6076 14.2402 7.73012 14.2402 7.85742V8.21387C14.2402 9.61595 14.2402 10.7177 14.125 11.5771C14.0059 12.4582 13.7583 13.157 13.21 13.7061C12.6615 14.2551 11.9612 14.5027 11.0801 14.6211C10.2206 14.7369 9.11894 14.7373 7.7168 14.7373H7.64355C6.24199 14.7373 5.13978 14.7373 4.28027 14.6221C3.39921 14.503 2.70042 14.2553 2.15137 13.707C1.60234 13.1586 1.35475 12.4582 1.23633 11.5771C1.1205 10.7177 1.12012 9.61595 1.12012 8.21387V8.14062C1.12012 6.73903 1.12015 5.6375 1.23535 4.77734C1.35438 3.89621 1.60208 3.19751 2.15039 2.64844C2.69885 2.09934 3.39904 1.85083 4.28027 1.73242C5.13978 1.61722 6.24135 1.61816 7.64355 1.61816L7.67969 1.61719ZM2.79688 9.61914C2.5601 9.61834 2.3234 9.6292 2.08789 9.65039C2.09765 10.3718 2.12084 10.9588 2.18652 11.4492C2.29084 12.2232 2.48914 12.6863 2.83008 13.0273C3.17116 13.3684 3.63396 13.5656 4.4082 13.6699C5.19661 13.7762 6.23351 13.7773 7.67969 13.7773C8.27104 13.7773 8.79432 13.775 9.25977 13.7676C8.85486 12.6981 8.14068 11.7417 7.17969 11.0137C6.02656 10.1396 4.59255 9.64919 3.10645 9.61914H2.79688ZM11.4453 10.8975C10.6564 10.8946 9.86158 11.108 9.08691 11.5449C9.6087 12.2025 10.0082 12.9422 10.2656 13.7334C10.514 13.7181 10.7421 13.6982 10.9521 13.6699C11.7263 13.5656 12.1892 13.3684 12.5303 13.0273C12.8712 12.6863 13.0685 12.2238 13.1729 11.4492C13.1811 11.3875 13.1873 11.3236 13.1943 11.2588C12.6163 11.0172 12.0314 10.897 11.4482 10.8975H11.4453Z" fill="#606060" opacity="0.5" />
</svg>
