<svg width="16" height="16" viewBox="0 0 18 18" fill="none" xmlns="http://www.w3.org/2000/svg">
<g clip-path="url(#clip0_2263_34892)">
<path fill-rule="evenodd" clip-rule="evenodd" d="M11.1643 3.16312C11.1437 3.46826 11.1429 3.86598 11.1429 4.48312C11.1429 5.10026 11.1429 5.49798 11.1643 5.80312C11.184 6.09626 11.2183 6.20769 11.2414 6.26083C11.3717 6.57581 11.6218 6.82615 11.9366 6.95683C11.9897 6.97912 12.102 7.01341 12.3951 7.03398C12.6994 7.05369 13.098 7.05455 13.7143 7.05455C14.3306 7.05455 14.7291 7.05455 15.0343 7.03312C15.3266 7.01341 15.4389 6.97912 15.492 6.95683C15.648 6.89222 15.7898 6.7975 15.9092 6.67807C16.0287 6.55865 16.1234 6.41687 16.188 6.26083C16.2103 6.20769 16.2446 6.09626 16.2643 5.80312C16.2849 5.49798 16.2857 5.10026 16.2857 4.48312C16.2857 3.86598 16.2857 3.46826 16.2643 3.16312C16.2446 2.87083 16.2103 2.75941 16.1871 2.7054C16.0569 2.39043 15.8068 2.14009 15.492 2.00941C15.4389 1.98798 15.3266 1.95369 15.0334 1.93312C14.7291 1.91255 14.3306 1.91169 13.7143 1.91169C13.098 1.91169 12.6994 1.91255 12.3943 1.93312C12.102 1.95369 11.9897 1.98798 11.9366 2.01026C11.6216 2.14056 11.3713 2.39059 11.2406 2.7054C11.2183 2.75941 11.184 2.86998 11.1643 3.16312ZM10.0526 2.21341C9.85715 2.68569 9.85715 3.28483 9.85715 4.48312C9.85715 5.68141 9.85715 6.28055 10.0526 6.75283C10.1818 7.06491 10.3713 7.34847 10.6101 7.58731C10.8489 7.82616 11.1325 8.0156 11.4446 8.14483C11.9169 8.34026 12.516 8.34026 13.7143 8.34026C14.9126 8.34026 15.5117 8.34026 15.984 8.14483C16.2961 8.0156 16.5796 7.82616 16.8185 7.58731C17.0573 7.34847 17.2468 7.06491 17.376 6.75283C17.5714 6.28055 17.5714 5.68141 17.5714 4.48312C17.5714 3.28483 17.5714 2.68569 17.376 2.21341C17.1146 1.58378 16.614 1.08371 15.984 0.823119C15.5117 0.625977 14.9126 0.625977 13.7143 0.625977C12.516 0.625977 11.9169 0.625977 11.4446 0.822262C10.8145 1.08305 10.3138 1.58346 10.0526 2.21341Z" fill="currentColor"/>
<path fill-rule="evenodd" clip-rule="evenodd" d="M1.73572 3.12015C1.71514 3.42529 1.71429 3.82301 1.71429 4.44015C1.71429 5.05729 1.71429 5.45501 1.73572 5.76015C1.75543 6.05329 1.78972 6.16472 1.81286 6.21787C1.94315 6.53284 2.19319 6.78318 2.508 6.91387C2.56115 6.93615 2.67343 6.97044 2.96657 6.99101C3.27086 7.01072 3.66943 7.01158 4.28572 7.01158C4.902 7.01158 5.30057 7.01158 5.60572 6.99015C5.898 6.97044 6.01029 6.93615 6.06343 6.91387C6.21947 6.84925 6.36125 6.75453 6.48067 6.63511C6.60009 6.51568 6.69482 6.3739 6.75943 6.21787C6.78172 6.16472 6.816 6.05329 6.83572 5.76015C6.85629 5.45501 6.85715 5.05729 6.85715 4.44015C6.85715 3.82301 6.85714 3.42529 6.83572 3.12015C6.816 2.82787 6.78172 2.71644 6.75857 2.66244C6.62828 2.34746 6.37824 2.09712 6.06343 1.96644C6.01029 1.94501 5.898 1.91072 5.60486 1.89015C5.30057 1.86958 4.902 1.86872 4.28572 1.86872C3.66943 1.86872 3.27086 1.86958 2.96572 1.89015C2.67343 1.91072 2.56115 1.94501 2.508 1.96729C2.19303 2.09759 1.94268 2.34762 1.812 2.66244C1.78972 2.71644 1.75543 2.82701 1.73572 3.12015ZM0.624002 2.17129C0.428574 2.64272 0.428574 3.24187 0.428574 4.44015C0.428574 5.63844 0.428574 6.23758 0.624002 6.70987C0.753231 7.02194 0.942678 7.3055 1.18152 7.54435C1.42036 7.78319 1.70392 7.97264 2.016 8.10186C2.48829 8.29729 3.08743 8.29729 4.28572 8.29729C5.484 8.29729 6.08314 8.29729 6.55543 8.10186C6.86751 7.97264 7.15107 7.78319 7.38991 7.54435C7.62876 7.3055 7.8182 7.02194 7.94743 6.70987C8.14286 6.23758 8.14286 5.63844 8.14286 4.44015C8.14286 3.24187 8.14286 2.64272 7.94743 2.17044C7.68607 1.54081 7.18538 1.04074 6.55543 0.780151C6.08314 0.583008 5.484 0.583008 4.28572 0.583008C3.08743 0.583008 2.48829 0.583008 2.016 0.780151C1.38606 1.04074 0.885367 1.54167 0.624002 2.17129ZM13.7143 10.0544C13.8848 10.0544 14.0483 10.1222 14.1689 10.2427C14.2894 10.3633 14.3571 10.5268 14.3571 10.6973V13.2259H16.8857C17.0562 13.2259 17.2197 13.2936 17.3403 13.4142C17.4608 13.5347 17.5286 13.6982 17.5286 13.8687C17.5286 14.0392 17.4608 14.2027 17.3403 14.3233C17.2197 14.4439 17.0562 14.5116 16.8857 14.5116H14.3571V17.0402C14.3571 17.2106 14.2894 17.3742 14.1689 17.4947C14.0483 17.6153 13.8848 17.683 13.7143 17.683C13.5438 17.683 13.3803 17.6153 13.2597 17.4947C13.1392 17.3742 13.0714 17.2106 13.0714 17.0402V14.5116H10.5429C10.3724 14.5116 10.2088 14.4439 10.0883 14.3233C9.96773 14.2027 9.9 14.0392 9.9 13.8687C9.9 13.6982 9.96773 13.5347 10.0883 13.4142C10.2088 13.2936 10.3724 13.2259 10.5429 13.2259H13.0714V10.6973C13.0714 10.5268 13.1392 10.3633 13.2597 10.2427C13.3803 10.1222 13.5438 10.0544 13.7143 10.0544Z" fill="currentColor"/>
<path fill-rule="evenodd" clip-rule="evenodd" d="M1.73572 12.5489C1.71514 12.854 1.71429 13.2517 1.71429 13.8689C1.71429 14.486 1.71429 14.8837 1.73572 15.1889C1.75543 15.482 1.78972 15.5934 1.81286 15.6466C1.94315 15.9615 2.19319 16.2119 2.508 16.3426C2.56115 16.3649 2.67343 16.3991 2.96657 16.4197C3.27086 16.4394 3.66943 16.4403 4.28572 16.4403C4.902 16.4403 5.30057 16.4403 5.60572 16.4189C5.898 16.3991 6.01029 16.3649 6.06343 16.3426C6.21947 16.278 6.36125 16.1832 6.48067 16.0638C6.60009 15.9444 6.69482 15.8026 6.75943 15.6466C6.78172 15.5934 6.816 15.4811 6.83572 15.188C6.85629 14.8837 6.85715 14.4851 6.85715 13.8689C6.85715 13.2517 6.85714 12.854 6.83572 12.5489C6.816 12.2566 6.78172 12.1451 6.75857 12.0911C6.62828 11.7762 6.37824 11.5258 6.06343 11.3951C6.01029 11.3729 5.898 11.3394 5.60486 11.3189C5.30057 11.2983 4.902 11.2974 4.28572 11.2974C3.66943 11.2974 3.27086 11.2983 2.96572 11.3189C2.67343 11.3394 2.56115 11.3729 2.508 11.396C2.19303 11.5263 1.94268 11.7763 1.812 12.0911C1.78972 12.1451 1.75543 12.2557 1.73572 12.5489ZM0.624002 11.6C0.428574 12.0714 0.428574 12.6706 0.428574 13.8689C0.428574 15.0671 0.428574 15.6663 0.624002 16.1386C0.753231 16.4507 0.942678 16.7342 1.18152 16.9731C1.42036 17.2119 1.70392 17.4013 2.016 17.5306C2.48829 17.726 3.08743 17.726 4.28572 17.726C5.484 17.726 6.08314 17.726 6.55543 17.5306C6.86751 17.4013 7.15107 17.2119 7.38991 16.9731C7.62876 16.7342 7.8182 16.4507 7.94743 16.1386C8.14286 15.6663 8.14286 15.0671 8.14286 13.8689C8.14286 12.6706 8.14286 12.0714 7.94743 11.5991C7.8182 11.2871 7.62876 11.0035 7.38991 10.7647C7.15107 10.5258 6.86751 10.3364 6.55543 10.2071C6.08314 10.0117 5.484 10.0117 4.28572 10.0117C3.08743 10.0117 2.48829 10.0117 2.016 10.2071C1.70392 10.3364 1.42036 10.5258 1.18152 10.7647C0.942678 11.0035 0.753231 11.2871 0.624002 11.5991V11.6Z" fill="currentColor"/>
</g>
<defs>
<clipPath id="clip0_2263_34892">
<rect width="18" height="18" fill="currentColor"/>
</clipPath>
</defs>
</svg>
