<svg width="16" height="17" viewBox="0 0 16 17" fill="none" xmlns="http://www.w3.org/2000/svg">
<path fill-rule="evenodd" clip-rule="evenodd" d="M3.1875 0C3.33668 0 3.47976 0.0592632 3.58525 0.164752C3.69074 0.270242 3.75 0.413316 3.75 0.5625V2.0625C3.75 2.21168 3.69074 2.35476 3.58525 2.46025C3.47976 2.56574 3.33668 2.625 3.1875 2.625C3.03832 2.625 2.89524 2.56574 2.78975 2.46025C2.68426 2.35476 2.625 2.21168 2.625 2.0625V0.5625C2.625 0.413316 2.68426 0.270242 2.78975 0.164752C2.89524 0.0592632 3.03832 0 3.1875 0ZM12.1875 0C12.3367 0 12.4798 0.0592632 12.5852 0.164752C12.6907 0.270242 12.75 0.413316 12.75 0.5625V2.0625C12.75 2.21168 12.6907 2.35476 12.5852 2.46025C12.4798 2.56574 12.3367 2.625 12.1875 2.625C12.0383 2.625 11.8952 2.56574 11.7898 2.46025C11.6843 2.35476 11.625 2.21168 11.625 2.0625V0.5625C11.625 0.413316 11.6843 0.270242 11.7898 0.164752C11.8952 0.0592632 12.0383 0 12.1875 0Z" fill="currentColor"/>
<path fill-rule="evenodd" clip-rule="evenodd" d="M6.93 0.75H8.445C9.918 0.75 11.085 0.75 11.9993 0.88275C12.9427 1.02 13.6972 1.30875 14.2867 1.9455C14.859 2.565 15.1193 3.3435 15.2467 4.3155C15.3713 5.2755 15.3743 6.5025 15.375 8.0625C15.375 8.21168 15.3157 8.35476 15.2102 8.46025C15.1048 8.56574 14.9617 8.625 14.8125 8.625C14.6633 8.625 14.5202 8.56574 14.4148 8.46025C14.3093 8.35476 14.25 8.21168 14.25 8.0625C14.25 6.47625 14.2448 5.3325 14.13 4.46175C14.0183 3.60225 13.8098 3.087 13.4603 2.70975C13.1108 2.33175 12.6398 2.11275 11.8373 1.99575C11.0138 1.87575 9.9285 1.875 8.4 1.875H6.975C5.4465 1.875 4.36125 1.8765 3.53775 1.99575C2.73525 2.11275 2.26425 2.33175 1.91475 2.70975C1.5585 3.0945 1.3485 3.62175 1.23825 4.51125C1.12575 5.412 1.125 6.59625 1.125 8.24475V8.63025C1.125 10.2787 1.12575 11.463 1.2375 12.3638C1.3485 13.2533 1.5585 13.7812 1.91475 14.1652C2.26425 14.5432 2.73525 14.7623 3.53775 14.8793C4.36125 14.9993 5.4465 15 6.975 15C7.12418 15 7.26726 15.0593 7.37275 15.1648C7.47824 15.2702 7.5375 15.4133 7.5375 15.5625C7.5375 15.7117 7.47824 15.8548 7.37275 15.9602C7.26726 16.0657 7.12418 16.125 6.975 16.125H6.93C5.457 16.125 4.29 16.125 3.37575 15.9923C2.43225 15.855 1.67775 15.5662 1.08825 14.9295C0.5055 14.2987 0.246 13.5015 0.1215 12.5033C-4.47035e-08 11.5245 0 10.2705 0 8.67V8.205C0 6.60525 -4.47035e-08 5.3505 0.1215 4.3725C0.246 3.3735 0.5055 2.57625 1.089 1.9455C1.67775 1.30875 2.4315 1.02 3.3765 0.88275C4.28925 0.75 5.45775 0.75 6.93 0.75Z" fill="currentColor"/>
<path fill-rule="evenodd" clip-rule="evenodd" d="M0.375 5.0625C0.375 4.91332 0.434263 4.77024 0.539752 4.66475C0.645242 4.55926 0.788316 4.5 0.9375 4.5H14.4375C14.5867 4.5 14.7298 4.55926 14.8352 4.66475C14.9407 4.77024 15 4.91332 15 5.0625C15 5.21168 14.9407 5.35476 14.8352 5.46025C14.7298 5.56574 14.5867 5.625 14.4375 5.625H0.9375C0.788316 5.625 0.645242 5.56574 0.539752 5.46025C0.434263 5.35476 0.375 5.21168 0.375 5.0625ZM11.4375 9C11.5867 9 11.7298 9.05926 11.8352 9.16475C11.9407 9.27024 12 9.41332 12 9.5625V12H14.4375C14.5867 12 14.7298 12.0593 14.8352 12.1648C14.9407 12.2702 15 12.4133 15 12.5625C15 12.7117 14.9407 12.8548 14.8352 12.9602C14.7298 13.0657 14.5867 13.125 14.4375 13.125H12V15.5625C12 15.7117 11.9407 15.8548 11.8352 15.9602C11.7298 16.0657 11.5867 16.125 11.4375 16.125C11.2883 16.125 11.1452 16.0657 11.0398 15.9602C10.9343 15.8548 10.875 15.7117 10.875 15.5625V13.125H8.4375C8.28832 13.125 8.14524 13.0657 8.03975 12.9602C7.93426 12.8548 7.875 12.7117 7.875 12.5625C7.875 12.4133 7.93426 12.2702 8.03975 12.1648C8.14524 12.0593 8.28832 12 8.4375 12H10.875V9.5625C10.875 9.41332 10.9343 9.27024 11.0398 9.16475C11.1452 9.05926 11.2883 9 11.4375 9Z" fill="currentColor"/>
</svg>
