<svg width="17" height="18" viewBox="0 0 17 18" fill="none" xmlns="http://www.w3.org/2000/svg">
<path d="M3.51172 9.89355H7.91016C8.27088 9.89356 8.56348 10.1862 8.56348 10.5469C8.56348 10.9076 8.27088 11.2002 7.91016 11.2002H3.51172C3.151 11.2002 2.8584 10.9076 2.8584 10.5469C2.8584 10.1862 3.151 9.89355 3.51172 9.89355ZM3.51172 7.08105H10.7539C11.1146 7.08105 11.4072 7.37365 11.4072 7.73438C11.4072 8.0951 11.1146 8.3877 10.7539 8.3877H3.51172C3.151 8.3877 2.8584 8.0951 2.8584 7.73438C2.8584 7.37365 3.151 7.08105 3.51172 7.08105Z" fill="currentColor" stroke="currentColor" stroke-width="0.1"/>
<path d="M2.8125 0.0498047H11.457C12.9802 0.0498047 14.2197 1.2893 14.2197 2.8125V7.13672C14.2197 7.49744 13.9271 7.79004 13.5664 7.79004C13.2057 7.79004 12.9131 7.49744 12.9131 7.13672V2.8125C12.9131 2.00948 12.2601 1.35645 11.457 1.35645H2.8125C2.00948 1.35645 1.35645 2.00948 1.35645 2.8125V15.1875C1.35645 15.9905 2.00948 16.6436 2.8125 16.6436H5.16406C5.52478 16.6436 5.81738 16.9362 5.81738 17.2969C5.81738 17.6576 5.52478 17.9502 5.16406 17.9502H2.8125C1.2893 17.9502 0.0498047 16.7107 0.0498047 15.1875V2.8125C0.0498047 1.2893 1.2893 0.0498047 2.8125 0.0498047Z" fill="currentColor" stroke="currentColor" stroke-width="0.1"/>
<path d="M12.5674 10.2148C13.3698 9.41246 14.6766 9.41289 15.4795 10.2158C16.2824 11.0188 16.2824 12.325 15.4795 13.1279L11.6279 16.9727C11.5484 17.0521 11.4491 17.1096 11.3408 17.1396L8.50195 17.9258C8.3895 17.9569 8.27086 17.9581 8.1582 17.9277C8.0453 17.8972 7.94202 17.8366 7.86035 17.7529C7.77875 17.6692 7.72104 17.5647 7.69336 17.4512C7.66579 17.3378 7.66928 17.2191 7.70312 17.1074L8.54395 14.3389C8.57524 14.2361 8.63101 14.1423 8.70703 14.0664L12.5674 10.2148ZM12.3594 12.2676L9.75488 14.8672L9.74609 14.876L9.74219 14.8877L9.32422 16.2637L9.29785 16.3506L9.38574 16.3262L10.8135 15.9307L10.8262 15.9268L10.8359 15.918L13.4248 13.333L13.46 13.2979L13.4248 13.2627L12.4307 12.2676L12.3945 12.2324L12.3594 12.2676ZM14.5557 11.1396C14.262 10.846 13.7849 10.846 13.4912 11.1396L13.3555 11.2744L13.3193 11.3105L13.3555 11.3457L14.3848 12.375L14.4199 12.3398L14.5566 12.2041C14.8498 11.9108 14.8493 11.4333 14.5557 11.1396ZM3.51172 4.26855H10.7539C11.1146 4.26855 11.4072 4.56115 11.4072 4.92188C11.4072 5.2826 11.1146 5.5752 10.7539 5.5752H3.51172C3.151 5.5752 2.8584 5.2826 2.8584 4.92188C2.8584 4.56115 3.151 4.26855 3.51172 4.26855Z" fill="currentColor" stroke="currentColor" stroke-width="0.1"/>
</svg>
