<svg width="17" height="17" viewBox="0 0 17 17" fill="none" xmlns="http://www.w3.org/2000/svg">
<path d="M11.0625 0C11.6094 0.000397303 12.1338 0.217785 12.5205 0.604492C12.9072 0.9912 13.1246 1.51561 13.125 2.0625V7.70508C13.2389 7.74148 13.3518 7.78211 13.4629 7.82812C14.2509 8.15453 14.9246 8.70781 15.3984 9.41699C15.8721 10.1261 16.125 10.9597 16.125 11.8125C16.1236 12.9558 15.6688 14.0519 14.8604 14.8604C14.0519 15.6688 12.9558 16.1236 11.8125 16.125C11.6658 16.125 11.52 16.1144 11.375 16.0996C11.2715 16.1158 11.1673 16.1261 11.0625 16.125H2.0625C1.51561 16.1246 0.9912 15.9072 0.604492 15.5205C0.217785 15.1338 0.000397598 14.6094 0 14.0625V2.0625C0.000397303 1.51561 0.217784 0.9912 0.604492 0.604492C0.9912 0.217785 1.51561 0.000397346 2.0625 0H11.0625ZM2.0625 1.125C1.81398 1.1254 1.57612 1.22466 1.40039 1.40039C1.22466 1.57612 1.1254 1.81398 1.125 2.0625V14.0625C1.1254 14.311 1.22466 14.5489 1.40039 14.7246C1.57612 14.9003 1.81398 14.9996 2.0625 15H8.9082C8.44163 14.5749 8.07169 14.0509 7.82812 13.4629C7.50172 12.6749 7.41661 11.8072 7.58301 10.9707C7.74947 10.1343 8.1597 9.36569 8.7627 8.7627C9.36569 8.1597 10.1343 7.74947 10.9707 7.58301C11.3111 7.5153 11.6569 7.49092 12 7.50586V2.0625C11.9996 1.81398 11.9003 1.57612 11.7246 1.40039C11.5489 1.22466 11.311 1.1254 11.0625 1.125H2.0625ZM11.8125 8.625C11.1822 8.625 10.5661 8.81199 10.042 9.16211C9.51781 9.51236 9.10844 10.0103 8.86719 10.5928C8.62601 11.1752 8.56355 11.8163 8.68652 12.4346C8.80955 13.0528 9.11288 13.6207 9.55859 14.0664C10.0043 14.5121 10.5722 14.8155 11.1904 14.9385C11.8087 15.0615 12.4498 14.999 13.0322 14.7578C13.6147 14.5166 14.1126 14.1072 14.4629 13.583C14.813 13.0589 15 12.4428 15 11.8125C14.999 10.9674 14.663 10.1571 14.0654 9.55957C13.4679 8.96201 12.6576 8.62599 11.8125 8.625Z" fill="currentColor"/>
<path d="M10.425 12.3877H13.175C13.3242 12.3877 13.4673 12.3284 13.5728 12.2229C13.6783 12.1175 13.7375 11.9744 13.7375 11.8252C13.7375 11.676 13.6783 11.5329 13.5728 11.4274C13.4673 11.322 13.3242 11.2627 13.175 11.2627H10.425C10.2759 11.2627 10.1328 11.322 10.0273 11.4274C9.92181 11.5329 9.86255 11.676 9.86255 11.8252C9.86255 11.9744 9.92181 12.1175 10.0273 12.2229C10.1328 12.3284 10.2759 12.3877 10.425 12.3877Z" fill="currentColor"/>
<path d="M11.875 9.96289C12.0109 9.96289 12.1412 10.0172 12.2373 10.1133C12.3333 10.2094 12.3877 10.3398 12.3877 10.4756V13.2256C12.3876 13.3613 12.3333 13.4919 12.2373 13.5879C12.1412 13.6839 12.0108 13.7383 11.875 13.7383C11.7392 13.7383 11.6088 13.6839 11.5127 13.5879C11.4167 13.4919 11.3624 13.3613 11.3623 13.2256V10.4756C11.3623 10.3398 11.4167 10.2094 11.5127 10.1133C11.6088 10.0172 11.7391 9.96289 11.875 9.96289ZM11.4775 10.0771V10.0781V10.0771ZM12.2725 10.0771C12.2834 10.0881 12.2918 10.1016 12.3018 10.1133C12.2919 10.1017 12.2833 10.089 12.2725 10.0781C12.2619 10.0675 12.2496 10.0585 12.2383 10.0488C12.2495 10.0584 12.2619 10.0666 12.2725 10.0771Z" fill="currentColor"/>
<path d="M8.8125 4.875H3.5625C3.41332 4.875 3.27024 4.81574 3.16475 4.71025C3.05926 4.60476 3 4.46168 3 4.3125C3 4.16332 3.05926 4.02024 3.16475 3.91475C3.27024 3.80926 3.41332 3.75 3.5625 3.75H8.8125C8.96168 3.75 9.10476 3.80926 9.21025 3.91475C9.31574 4.02024 9.375 4.16332 9.375 4.3125C9.375 4.46168 9.31574 4.60476 9.21025 4.71025C9.10476 4.81574 8.96168 4.875 8.8125 4.875ZM7.3125 7.875H3.5625C3.41332 7.875 3.27024 7.81574 3.16475 7.71025C3.05926 7.60476 3 7.46168 3 7.3125C3 7.16332 3.05926 7.02024 3.16475 6.91475C3.27024 6.80926 3.41332 6.75 3.5625 6.75H7.3125C7.46168 6.75 7.60476 6.80926 7.71025 6.91475C7.81574 7.02024 7.875 7.16332 7.875 7.3125C7.875 7.46168 7.81574 7.60476 7.71025 7.71025C7.60476 7.81574 7.46168 7.875 7.3125 7.875Z" fill="currentColor"/>
</svg>
