<svg width="17" height="15" viewBox="0 0 17 15" fill="none" xmlns="http://www.w3.org/2000/svg">
<path d="M5.8215 6.375C5.19107 6.375 4.5748 6.18806 4.05062 5.83781C3.52644 5.48756 3.11789 4.98974 2.87663 4.4073C2.63538 3.82487 2.57226 3.18397 2.69525 2.56565C2.81824 1.94734 3.12182 1.37938 3.5676 0.933599C4.01338 0.487819 4.58134 0.184239 5.19965 0.0612484C5.81796 -0.061742 6.45886 0.00138109 7.0413 0.242635C7.62374 0.48389 8.12156 0.892439 8.47181 1.41662C8.82206 1.9408 9.009 2.55707 9.009 3.1875C9.00801 4.03257 8.67186 4.84275 8.07431 5.44031C7.47675 6.03787 6.66657 6.37401 5.8215 6.375ZM5.8215 1.125C5.41358 1.125 5.01481 1.24596 4.67564 1.4726C4.33646 1.69923 4.0721 2.02134 3.916 2.39822C3.75989 2.77509 3.71905 3.18979 3.79863 3.58988C3.87821 3.98996 4.07465 4.35746 4.36309 4.64591C4.65154 4.93436 5.01904 5.13079 5.41913 5.21037C5.81921 5.28995 6.23391 5.24911 6.61078 5.093C6.98766 4.9369 7.30978 4.67254 7.53641 4.33336C7.76304 3.99419 7.884 3.59543 7.884 3.1875C7.8836 2.64061 7.66618 2.11624 7.27947 1.72953C6.89276 1.34282 6.36839 1.1254 5.8215 1.125ZM8.81475 14.625H2.81475C0.99975 14.625 0 13.6313 0 11.8268C0 9.83025 1.1295 7.5 4.3125 7.5H7.3125C10.4955 7.5 11.625 9.83025 11.625 11.8268C11.6272 13.6313 10.6275 14.625 8.81475 14.625ZM4.31475 8.625C3.88649 8.59188 3.45614 8.6521 3.05342 8.80149C2.6507 8.95088 2.28519 9.1859 1.98214 9.4903C1.67909 9.79471 1.44571 10.1613 1.29811 10.5646C1.15052 10.968 1.09222 11.3986 1.12725 11.8268C1.12725 12.9998 1.63275 13.5 2.817 13.5H8.81475C9.999 13.5 10.5045 12.9998 10.5045 11.8268C10.5396 11.3984 10.4812 10.9676 10.3335 10.5641C10.1858 10.1605 9.95219 9.79383 9.64889 9.48939C9.34558 9.18494 8.97979 8.94998 8.57679 8.80074C8.17379 8.6515 7.74319 8.59154 7.31475 8.625H4.31475ZM11.4847 6.705C10.8121 6.70731 10.1655 6.44492 9.68475 5.9745C9.59359 5.86801 9.54547 5.73131 9.54983 5.59119C9.5542 5.45108 9.61072 5.31764 9.70833 5.21702C9.80595 5.11641 9.93761 5.05586 10.0775 5.04726C10.2175 5.03865 10.3555 5.0826 10.4648 5.1705C10.7366 5.43555 11.1021 5.58269 11.4818 5.58C11.6764 5.58211 11.8694 5.54533 12.0497 5.47183C12.2299 5.39832 12.3936 5.28957 12.5312 5.15195C12.6688 5.01433 12.7776 4.85061 12.8511 4.6704C12.9246 4.49019 12.9614 4.29711 12.9592 4.1025C12.9587 3.71083 12.8028 3.33536 12.5258 3.05841C12.2489 2.78145 11.8734 2.6256 11.4818 2.625C11.2665 2.62158 11.0536 2.66966 10.8608 2.76525C10.7278 2.83298 10.5733 2.84511 10.4314 2.79898C10.2895 2.75285 10.1717 2.65222 10.104 2.51925C10.0363 2.38628 10.0241 2.23185 10.0703 2.08993C10.1164 1.94801 10.217 1.83023 10.35 1.7625C10.7018 1.58543 11.0909 1.49541 11.4847 1.5C12.175 1.5 12.8369 1.77419 13.325 2.26226C13.8131 2.75032 14.0873 3.41228 14.0873 4.1025C14.0873 4.79273 13.8131 5.45468 13.325 5.94275C12.8369 6.43081 12.175 6.705 11.4847 6.705ZM13.8097 13.125H13.2997C13.1506 13.125 13.0075 13.0657 12.902 12.9602C12.7965 12.8548 12.7372 12.7117 12.7372 12.5625C12.7372 12.4133 12.7965 12.2702 12.902 12.1648C13.0075 12.0593 13.1506 12 13.2997 12H13.8097C14.6685 12 15.0023 11.67 15.0023 10.8225C15.028 10.5064 14.9847 10.1884 14.8756 9.89065C14.7664 9.59286 14.594 9.32231 14.3701 9.09768C14.1461 8.87306 13.8761 8.69971 13.5787 8.58961C13.2812 8.47952 12.9635 8.4353 12.6473 8.46H11.5148C11.3656 8.46 11.2225 8.40074 11.117 8.29525C11.0115 8.18976 10.9523 8.04669 10.9523 7.8975C10.9523 7.74832 11.0115 7.60524 11.117 7.49975C11.2225 7.39426 11.3656 7.335 11.5148 7.335H12.6473C13.1128 7.30442 13.5795 7.37373 14.0161 7.53829C14.4527 7.70284 14.8491 7.95883 15.1786 8.2891C15.5082 8.61936 15.7633 9.01627 15.9269 9.45321C16.0905 9.89014 16.1588 10.357 16.1273 10.8225C16.1593 11.1341 16.1213 11.4489 16.0159 11.7438C15.9106 12.0388 15.7406 12.3065 15.5184 12.5272C15.2962 12.748 15.0274 12.9162 14.7318 13.0197C14.4361 13.1231 14.1211 13.1591 13.8097 13.125Z" fill="currentColor"/>
</svg>
