<svg  viewBox="0 0 24 24" fill="none" xmlns="http://www.w3.org/2000/svg">
<g clip-path="url(#clip0_9002_6145)">
<path fill-rule="evenodd" clip-rule="evenodd" d="M1.53033 0.46967C1.23744 0.176777 0.762563 0.176777 0.46967 0.46967C0.176777 0.762563 0.176777 1.23744 0.46967 1.53033L4.04369 5.10435C3.69704 5.74241 3.5 6.47385 3.5 7.25004C3.5 9.73533 5.51471 11.7501 8 11.7501C8.77619 11.7501 9.50764 11.553 10.1457 11.2064L22.4697 23.5303C22.7626 23.8232 23.2374 23.8232 23.5303 23.5303C23.8232 23.2374 23.8232 22.7626 23.5303 22.4697L10.7883 9.72764C10.7827 9.72191 10.7771 9.71628 10.7714 9.71077L5.53928 4.47862C5.53376 4.47292 5.52814 4.4673 5.52241 4.46175L1.53033 0.46967ZM5.17544 6.2361C5.06185 6.55255 5 6.89377 5 7.25004C5 8.90692 6.34315 10.2501 8 10.2501C8.35627 10.2501 8.6975 10.1882 9.01396 10.0746L5.17544 6.2361Z" fill="currentColor"/>
<path d="M8 4.25C7.8718 4.25 7.74582 4.258 7.62246 4.27345C7.21146 4.32492 6.83655 4.03347 6.78508 3.62246C6.7336 3.21146 7.02506 2.83655 7.43606 2.78508C7.6211 2.7619 7.80933 2.75 8 2.75C10.4853 2.75 12.5 4.76474 12.5 7.25004C12.5 7.44069 12.4881 7.62891 12.4649 7.81394C12.4135 8.22494 12.0386 8.5164 11.6276 8.46493C11.2165 8.41346 10.9251 8.03855 10.9766 7.62755C10.992 7.5042 11 7.37823 11 7.25004C11 5.59315 9.65685 4.25 8 4.25Z" fill="currentColor"/>
<path d="M17.2756 13.9572C17.3119 13.5446 17.6757 13.2395 18.0884 13.2757C21.3519 13.5623 23.7499 16.2189 23.7499 19C23.7499 19.4142 23.4141 19.75 22.9999 19.75C22.5857 19.75 22.2499 19.4142 22.2499 19C22.2499 17.0593 20.5104 14.9941 17.9571 14.7699C17.5445 14.7337 17.2394 14.3698 17.2756 13.9572Z" fill="currentColor"/>
<path d="M1.75 20.5C1.75 17.9835 4.29449 15.25 8.00041 15.25C11.7062 15.25 14.25 17.9834 14.25 20.5C14.25 20.9142 14.5858 21.25 15 21.25C15.4142 21.25 15.75 20.9142 15.75 20.5C15.75 17.0166 12.3892 13.75 8.00041 13.75C3.61176 13.75 0.25 17.0165 0.25 20.5C0.25 20.9142 0.585786 21.25 1 21.25C1.41421 21.25 1.75 20.9142 1.75 20.5Z" fill="currentColor"/>
<path fill-rule="evenodd" clip-rule="evenodd" d="M14 8.25C14 6.31701 15.567 4.75 17.5 4.75C19.4329 4.75 20.9999 6.31701 20.9999 8.25C20.9999 10.183 19.4329 11.75 17.5 11.75C15.567 11.75 14 10.183 14 8.25ZM17.5 6.25C16.3954 6.25 15.5 7.14542 15.5 8.25C15.5 9.35458 16.3954 10.25 17.5 10.25C18.6045 10.25 19.4999 9.35458 19.4999 8.25C19.4999 7.14542 18.6045 6.25 17.5 6.25Z" fill="currentColor"/>
</g>
<defs>
<clipPath id="clip0_9002_6145">
<rect width="24" height="24" fill="currentColor"/>
</clipPath>
</defs>
</svg>
