<svg width="16" height="16" viewBox="0 0 17 17" fill="none" xmlns="http://www.w3.org/2000/svg">
<path d="M8.625 13.3125C8.625 13.1633 8.56574 13.0202 8.46025 12.9148C8.35476 12.8093 8.21168 12.75 8.0625 12.75C7.91332 12.75 7.77024 12.8093 7.66475 12.9148C7.55926 13.0202 7.5 13.1633 7.5 13.3125H8.625ZM5.8125 15C5.66332 15 5.52024 15.0593 5.41475 15.1648C5.30926 15.2702 5.25 15.4133 5.25 15.5625C5.25 15.7117 5.30926 15.8548 5.41475 15.9602C5.52024 16.0657 5.66332 16.125 5.8125 16.125V15ZM10.3125 16.125C10.4617 16.125 10.6048 16.0657 10.7102 15.9602C10.8157 15.8548 10.875 15.7117 10.875 15.5625C10.875 15.4133 10.8157 15.2702 10.7102 15.1648C10.6048 15.0593 10.4617 15 10.3125 15V16.125ZM3.5625 1.125H12.5625V0H3.5625V1.125ZM15 3.5625V10.3125H16.125V3.5625H15ZM12.5625 12.75H3.5625V13.875H12.5625V12.75ZM1.125 10.3125V3.5625H0V10.3125H1.125ZM3.5625 12.75C2.91603 12.75 2.29605 12.4932 1.83893 12.0361C1.38181 11.579 1.125 10.959 1.125 10.3125H0C0 11.2573 0.375334 12.1635 1.04343 12.8316C1.71153 13.4997 2.61767 13.875 3.5625 13.875V12.75ZM15 10.3125C15 10.959 14.7432 11.579 14.2861 12.0361C13.829 12.4932 13.209 12.75 12.5625 12.75V13.875C13.5073 13.875 14.4135 13.4997 15.0816 12.8316C15.7497 12.1635 16.125 11.2573 16.125 10.3125H15ZM12.5625 1.125C13.209 1.125 13.829 1.38181 14.2861 1.83893C14.7432 2.29605 15 2.91603 15 3.5625H16.125C16.125 2.61767 15.7497 1.71153 15.0816 1.04343C14.4135 0.375334 13.5073 0 12.5625 0V1.125ZM3.5625 0C2.61767 0 1.71153 0.375334 1.04343 1.04343C0.375334 1.71153 0 2.61767 0 3.5625H1.125C1.125 2.91603 1.38181 2.29605 1.83893 1.83893C2.29605 1.38181 2.91603 1.125 3.5625 1.125V0ZM7.5 13.3125V15.5625H8.625V13.3125H7.5ZM8.0625 15H5.8125V16.125H8.0625V15ZM8.0625 16.125H10.3125V15H8.0625V16.125Z" fill="currentColor"/>
<path d="M7.26667 2.6875H8.85834C9.28047 2.6875 9.68532 2.85519 9.98381 3.15369C10.2823 3.45218 10.45 3.85703 10.45 4.27917V7.47917H5.675V4.27917C5.675 3.85703 5.8427 3.45218 6.14119 3.15369C6.43969 2.85519 6.84453 2.6875 7.26667 2.6875Z" stroke="currentColor" stroke-miterlimit="10" stroke-linecap="square"/>
<path d="M5.875 7.47949H10.25C10.5141 7.47949 10.7674 7.58441 10.9542 7.77117C11.1409 7.95792 11.2458 8.21121 11.2458 8.47533C11.2458 8.63335 11.1831 8.7849 11.0713 8.89664C10.9596 9.00838 10.808 9.07116 10.65 9.07116H5.47916C5.32114 9.07116 5.16959 9.00838 5.05785 8.89664C4.94611 8.7849 4.88333 8.63335 4.88333 8.47533C4.88333 8.21193 4.98767 7.95927 5.17353 7.77263C5.35938 7.586 5.61161 7.48059 5.875 7.47949Z" stroke="currentColor" stroke-miterlimit="10" stroke-linecap="square"/>
<path d="M8.0625 9.0498V10.6415" stroke="currentColor" stroke-miterlimit="10" stroke-linecap="square"/>
<path d="M6.47083 11.4372C6.68944 11.4372 6.86666 11.26 6.86666 11.0413C6.86666 10.8227 6.68944 10.6455 6.47083 10.6455C6.25222 10.6455 6.075 10.8227 6.075 11.0413C6.075 11.26 6.25222 11.4372 6.47083 11.4372Z" stroke="currentColor" stroke-miterlimit="10" stroke-linecap="square"/>
<path d="M9.65416 11.4372C9.87278 11.4372 10.05 11.26 10.05 11.0413C10.05 10.8227 9.87278 10.6455 9.65416 10.6455C9.43555 10.6455 9.25833 10.8227 9.25833 11.0413C9.25833 11.26 9.43555 11.4372 9.65416 11.4372Z" stroke="currentColor" stroke-miterlimit="10" stroke-linecap="square"/>
<path d="M6.47083 10.6416H9.65416" stroke="currentColor" stroke-miterlimit="10"/>
</svg>
